<svg xmlns="http://www.w3.org/2000/svg" width="20" height="18" viewBox="0 0 20 18">
  <g id="ic_photo_camera_24px" transform="translate(-2 -2)">
    <circle id="Ellipse_16" data-name="Ellipse 16" cx="3.2" cy="3.2" r="3.2" transform="translate(8.8 8.8)" fill="#b3b8bd"/>
    <path id="Path_92" data-name="Path 92" d="M9,2,7.17,4H4A2.006,2.006,0,0,0,2,6V18a2.006,2.006,0,0,0,2,2H20a2.006,2.006,0,0,0,2-2V6a2.006,2.006,0,0,0-2-2H16.83L15,2Zm3,15a5,5,0,1,1,5-5A5,5,0,0,1,12,17Z" fill="#b3b8bd"/>
  </g>
</svg>
