<svg id="icons_Q2" data-name="icons Q2" xmlns="http://www.w3.org/2000/svg" width="13.909" height="17" viewBox="0 0 13.909 17">
  <g id="Group_339" data-name="Group 339">
    <path id="Path_1004" data-name="Path 1004" d="M13.136,3.091h-.773V.773A.773.773,0,0,0,11.591,0H2.318A2.318,2.318,0,0,0,0,2.318V14.682A2.318,2.318,0,0,0,2.318,17H13.136a.773.773,0,0,0,.773-.773V3.864A.773.773,0,0,0,13.136,3.091ZM2.318,1.545h8.5V3.091H2.357a.811.811,0,0,1-.811-.657.773.773,0,0,1,.773-.889ZM12.364,15.455H2.318a.773.773,0,0,1-.773-.773V4.636H12.364Z" transform="translate(0)" fill="#b0b0b0"/>
    <rect id="Rectangle_782" data-name="Rectangle 782" width="7.667" height="2" transform="translate(2.996 5.88)" fill="#b0b0b0"/>
  </g>
</svg>
