<svg id="Layer_2" data-name="Layer 2" xmlns="http://www.w3.org/2000/svg" width="21" height="21" viewBox="0 0 21 21">
  <g id="invisible_box" data-name="invisible box">
    <rect id="Rectangle_575" data-name="Rectangle 575" width="21" height="21" fill="none"/>
  </g>
  <g id="icons_Q2" data-name="icons Q2" transform="translate(2.187 1.313)">
    <path id="Path_1005" data-name="Path 1005" d="M21.625,5.537a1.006,1.006,0,0,1-.262.7.744.744,0,0,1-.613.262H15.5a.875.875,0,0,1-.875-.875V4.75H12v.875a.875.875,0,0,1-.875.875H5.918A.919.919,0,0,1,5,5.713a1.006,1.006,0,0,1,.263-.7.744.744,0,0,1,.612-.263H10.25V3.875A.875.875,0,0,1,11.125,3H15.5a.875.875,0,0,1,.875.875V4.75h4.331a.919.919,0,0,1,.919.787Z" transform="translate(-4.999 -3)" fill="#52575d"/>
    <path id="Path_1006" data-name="Path 1006" d="M20.394,15.787l-1.05,10.587h-7.35l-1.05-10.587A.875.875,0,0,0,10.069,15h0a.875.875,0,0,0-.875.963l1.138,11.375a.875.875,0,0,0,.875.788h8.925a.875.875,0,0,0,.875-.788l1.137-11.375A.875.875,0,0,0,21.269,15h0A.875.875,0,0,0,20.394,15.787Z" transform="translate(-7.357 -9.75)" fill="#52575d"/>
  </g>
</svg>
