<svg id="edit" xmlns="http://www.w3.org/2000/svg" width="11" height="10.999" viewBox="0 0 11 10.999">
  <path id="Path_24" data-name="Path 24" d="M10.288.74a2.426,2.426,0,0,0-3.434,0L.559,7.033a.315.315,0,0,0-.089.18L0,10.668a.314.314,0,0,0,.089.265.32.32,0,0,0,.223.094.255.255,0,0,0,.042,0l2.081-.281a.317.317,0,1,0-.084-.628L.685,10.34l.326-2.409,2.536,2.536a.32.32,0,0,0,.223.094.31.31,0,0,0,.223-.094l6.3-6.293a2.425,2.425,0,0,0,0-3.434Zm-3.312.773L8.033,2.57,2.289,8.315,1.232,7.258ZM3.772,9.8,2.739,8.763,8.483,3.018,9.517,4.052ZM9.957,3.6,7.428,1.07A1.8,1.8,0,0,1,9.957,3.6Z" transform="translate(0 -0.028)" fill="#a5a4bf"/>
</svg>
