<svg xmlns="http://www.w3.org/2000/svg" width="18" height="12.857" viewBox="0 0 18 12.857">
  <g id="Group_225" data-name="Group 225" opacity="0.5">
    <path id="Path_964" data-name="Path 964" d="M16.1,12.857H1.864a1.941,1.941,0,0,1-1.864-2V2A1.954,1.954,0,0,1,1.864,0H16.1a1.941,1.941,0,0,1,1.864,2v8.854A1.916,1.916,0,0,1,16.1,12.857ZM1.864.809A1.177,1.177,0,0,0,.734,2.022v8.854a1.177,1.177,0,0,0,1.13,1.213H16.1a1.177,1.177,0,0,0,1.13-1.213V2A1.177,1.177,0,0,0,16.1.788H1.864Z" transform="translate(0)" fill="#5b5b5b"/>
    <path id="Path_965" data-name="Path 965" d="M17.623,17.551H.377c-.207,0-.377-.32-.377-.711v-4.23c0-.391.17-.711.377-.711H17.623c.207,0,.377.32.377.711v4.23C18,17.267,17.83,17.551,17.623,17.551ZM.754,16.165H17.246V13.322H.754Z" transform="translate(0 -9.837)" fill="#5b5b5b"/>
    <path id="Path_966" data-name="Path 966" d="M19.9,40.835H12.518a.526.526,0,1,1,0-1.035H19.9a.526.526,0,1,1,0,1.035Z" transform="translate(-9.573 -31.407)" fill="#5b5b5b"/>
    <path id="Path_967" data-name="Path 967" d="M19.9,48.779H12.518a.544.544,0,1,1,0-1.079H19.9a.544.544,0,1,1,0,1.079Z" transform="translate(-9.573 -37.35)" fill="#5b5b5b"/>
    <path id="Path_968" data-name="Path 968" d="M69.082,37.962h-.593a.872.872,0,0,1-.889-.848v-.565a.872.872,0,0,1,.889-.848h.593a.872.872,0,0,1,.889.848v.565A.882.882,0,0,1,69.082,37.962Zm-.593-1.682a.291.291,0,0,0-.3.283v.565a.291.291,0,0,0,.3.283h.593a.291.291,0,0,0,.3-.283v-.565a.291.291,0,0,0-.3-.283Z" transform="translate(-54.829 -31.942)" fill="#5b5b5b"/>
  </g>
</svg>
