<svg xmlns="http://www.w3.org/2000/svg" width="17.108" height="16.312" viewBox="0 0 17.108 16.312">
  <g id="house" transform="translate(2.055 0.546)">
    <path id="Path_36" data-name="Path 36" d="M15.853,18.029,8.323,11.3a.211.211,0,0,0-.043-.033.445.445,0,0,0-.6-.01L.149,17.986a.445.445,0,0,0,.592.665L2.1,17.437v7.852a1.12,1.12,0,0,0,1.119,1.119H5.592a1.051,1.051,0,0,0,1.05-1.05V21.366A.162.162,0,0,1,6.8,21.2H9.2a.162.162,0,0,1,.161.161v3.992a1.051,1.051,0,0,0,1.05,1.05h2.376a1.272,1.272,0,0,0,1.119-1.4V17.48l1.356,1.214a.447.447,0,0,0,.629-.036A.453.453,0,0,0,15.853,18.029Zm-2.837,2.195V25c0,.319-.158.513-.23.513H10.41a.162.162,0,0,1-.161-.161V21.366a1.051,1.051,0,0,0-1.05-1.05H6.8a1.051,1.051,0,0,0-1.05,1.05v3.992a.162.162,0,0,1-.161.161H3.213a.231.231,0,0,1-.23-.23V16.641l5-4.462,5.038,4.505v3.541Z" transform="translate(-1.5 -11.141)" fill="#52575d" stroke="#52575d" stroke-width="1"/>
  </g>
</svg>
