<svg xmlns="http://www.w3.org/2000/svg" width="17" height="17" viewBox="0 0 17 17">
  <g id="ic_streetview_24px" transform="translate(0 -1)">
    <path id="Path_97" data-name="Path 97" d="M12.5,14.127a1.333,1.333,0,0,0-.5,1.04v4.889h6.222A1.783,1.783,0,0,0,20,18.278V12.962a7.974,7.974,0,0,0-7.5,1.164Z" transform="translate(-3 -3)" fill="#a5a4bf"/>
    <circle id="Ellipse_20" data-name="Ellipse 20" cx="3.5" cy="3.5" r="3.5" transform="translate(10 1)" fill="#a5a4bf"/>
    <path id="Path_98" data-name="Path 98" d="M10.812,5.757A5.941,5.941,0,0,1,11.492,3H4.838A1.843,1.843,0,0,0,3,4.838V17.7A1.834,1.834,0,0,0,3.542,19l9.025-9.025A5.914,5.914,0,0,1,10.812,5.757Z" transform="translate(-3 -1)" fill="#a5a4bf"/>
  </g>
</svg>
