<svg xmlns="http://www.w3.org/2000/svg" width="17.925" height="14.808" viewBox="0 0 17.925 14.808">
  <g id="icons_Q2" data-name="icons Q2" transform="translate(0 0.596)">
    <path id="Path_999" data-name="Path 999" d="M15.928,13.323a.749.749,0,0,0,.57.234.833.833,0,0,0,.57-.234l2.606-2.492a.718.718,0,0,0,0-1.09L18.452,8.534a1.4,1.4,0,0,0,.244-.818,1.594,1.594,0,0,0-1.629-1.557,1.558,1.558,0,0,0-.855.234L14.95,5.224a.8.8,0,0,0-1.14,0L11.2,7.716a.718.718,0,0,0,0,1.09L13,10.519l-2.036,1.947-2.2-2.1a3.28,3.28,0,0,0,.57-1.869,3.587,3.587,0,0,0-3.665-3.5.78.78,0,1,0,0,1.557A1.993,1.993,0,0,1,7.7,8.495a1.993,1.993,0,0,1-2.036,1.947A1.993,1.993,0,0,1,3.629,8.495a.8.8,0,0,0-.814-.779A.8.8,0,0,0,2,8.495,3.587,3.587,0,0,0,5.665,12a3.663,3.663,0,0,0,1.955-.545l2.2,2.1L4.688,18.462a.718.718,0,0,0,0,1.09.8.8,0,0,0,1.14,0l5.131-4.906,5.131,4.906a.8.8,0,0,0,1.14,0,.718.718,0,0,0,0-1.09L12.1,13.557l2.036-1.947ZM12.914,8.261l1.466-1.4,3.584,3.426-1.466,1.4Z" transform="translate(-2 -5.581)" fill="#b0b0b0"/>
  </g>
</svg>
