<svg width="30" height="30" viewBox="0 0 30 30" fill="none" xmlns="http://www.w3.org/2000/svg">
<path d="M21.25 21.25H23.75C24.413 21.25 25.0489 20.9866 25.5178 20.5178C25.9866 20.0489 26.25 19.413 26.25 18.75V13.75C26.25 13.087 25.9866 12.4511 25.5178 11.9822C25.0489 11.5134 24.413 11.25 23.75 11.25H6.25C5.58696 11.25 4.95107 11.5134 4.48223 11.9822C4.01339 12.4511 3.75 13.087 3.75 13.75V18.75C3.75 19.413 4.01339 20.0489 4.48223 20.5178C4.95107 20.9866 5.58696 21.25 6.25 21.25H8.75H21.25ZM11.25 26.25H18.75C19.413 26.25 20.0489 25.9866 20.5178 25.5178C20.9866 25.0489 21.25 24.413 21.25 23.75V18.75C21.25 18.087 20.9866 17.4511 20.5178 16.9822C20.0489 16.5134 19.413 16.25 18.75 16.25H11.25C10.587 16.25 9.95107 16.5134 9.48223 16.9822C9.01339 17.4511 8.75 18.087 8.75 18.75V23.75C8.75 24.413 9.01339 25.0489 9.48223 25.5178C9.95107 25.9866 10.587 26.25 11.25 26.25ZM21.25 11.25V6.25C21.25 5.58696 20.9866 4.95107 20.5178 4.48223C20.0489 4.01339 19.413 3.75 18.75 3.75H11.25C10.587 3.75 9.95107 4.01339 9.48223 4.48223C9.01339 4.95107 8.75 5.58696 8.75 6.25V11.25H21.25Z" stroke="black" stroke-width="2" stroke-linecap="round" stroke-linejoin="round"/>
</svg>
