<svg id="Layer_2" data-name="Layer 2" xmlns="http://www.w3.org/2000/svg" width="20" height="20" viewBox="0 0 20 20">
  <g id="invisible_box" data-name="invisible box">
    <rect id="Rectangle_572" data-name="Rectangle 572" width="20" height="20" fill="none"/>
  </g>
  <g id="Medical" transform="translate(2.633 0.878)">
    <g id="Group_333" data-name="Group 333">
      <path id="Path_1001" data-name="Path 1001" d="M17.412,5.012H12.583V3.506h2.195a.823.823,0,0,0,.878-.753A.823.823,0,0,0,14.778,2H8.633a.823.823,0,0,0-.878.753.823.823,0,0,0,.878.753h2.195V5.012H7.316a1.393,1.393,0,0,0-.945.319A1.014,1.014,0,0,0,6,6.141V9.153a1.014,1.014,0,0,0,.372.81,1.393,1.393,0,0,0,.945.319h8.34v2.635a1.014,1.014,0,0,0,.372.81,1.393,1.393,0,0,0,.945.319h3.512a1.393,1.393,0,0,0,.945-.319,1.014,1.014,0,0,0,.372-.81V8.776C21.8,6.7,19.836,5.012,17.412,5.012Zm2.634,7.529H17.412V9.906a1.014,1.014,0,0,0-.372-.81,1.393,1.393,0,0,0-.945-.319H7.755V6.518h9.657a2.468,2.468,0,0,1,2.634,2.259Z" transform="translate(-5.998 1.122)" fill="#b0b0b0"/>
      <path id="Path_1002" data-name="Path 1002" d="M32.756,36l-1.317,1.492a1.712,1.712,0,0,0,.176,2.458,1.756,1.756,0,0,0,2.283,0,1.712,1.712,0,0,0,.176-2.458Z" transform="translate(-20.026 -23.075)" fill="#b0b0b0"/>
    </g>
  </g>
</svg>
