<svg xmlns="http://www.w3.org/2000/svg" width="10" height="10" viewBox="0 0 10 10">
  <g id="Union_12" data-name="Union 12" fill="#43425d" stroke-linecap="square" stroke-linejoin="bevel">
    <path d="M 9.5 9.5 L 0.5 9.5 L 0.5 8.749890327453613 C 0.5 7.803919792175293 2.348079919815063 6.749889850616455 5 6.749889850616455 C 7.651919841766357 6.749889850616455 9.5 7.803919792175293 9.5 8.749890327453613 L 9.5 9.5 Z M 5 4.5 C 3.897200107574463 4.5 3 3.602799892425537 3 2.5 C 3 1.397199988365173 3.897200107574463 0.5 5 0.5 C 6.102799892425537 0.5 7 1.397199988365173 7 2.5 C 7 3.602799892425537 6.102799892425537 4.5 5 4.5 Z" stroke="none"/>
    <path d="M 9 9 L 9 8.749890327453613 C 9 8.544210433959961 8.716770172119141 8.195070266723633 8.084030151367188 7.878699779510498 C 7.284800052642822 7.479080200195312 6.160709857940674 7.249889850616455 5 7.249889850616455 C 3.839289903640747 7.249889850616455 2.715199947357178 7.479080200195312 1.915969967842102 7.878699779510498 C 1.283229947090149 8.195070266723633 1 8.544210433959961 1 8.749890327453613 L 1 9 L 9 9 M 5 4 C 5.827099800109863 4 6.5 3.327100038528442 6.5 2.5 C 6.5 1.672899961471558 5.827099800109863 1 5 1 C 4.172900199890137 1 3.5 1.672899961471558 3.5 2.5 C 3.5 3.327100038528442 4.172900199890137 4 5 4 M 10 10 L 0 10 L 0 8.749890327453613 C 0 7.374899864196777 2.250020027160645 6.249889850616455 5 6.249889850616455 C 7.749979972839355 6.249889850616455 10 7.374899864196777 10 8.749890327453613 L 10 10 Z M 5 5 C 3.61939001083374 5 2.5 3.88060998916626 2.5 2.5 C 2.5 1.119160056114197 3.61939001083374 0 5 0 C 6.38060998916626 0 7.5 1.119160056114197 7.5 2.5 C 7.5 3.88060998916626 6.38060998916626 5 5 5 Z" stroke="none" fill="#9290e2"/>
  </g>
</svg>
