<svg xmlns="http://www.w3.org/2000/svg" width="14.951" height="14.611" viewBox="0 0 14.951 14.611">
  <path id="Path_1003" data-name="Path 1003" d="M17.857,17.15H5.459V14.118L7.72,11.78a2.331,2.331,0,0,0,1.021.256,2.222,2.222,0,0,0,1.2-.365l.875.767a2.67,2.67,0,0,0-.255,1.059,2.188,2.188,0,1,0,4.376,0,2.085,2.085,0,0,0-.328-1.169L16,10.794a1.894,1.894,0,0,0,.766.146,2.192,2.192,0,1,0-2.188-2.192,2.121,2.121,0,0,0,.292,1.1l-1.422,1.571a2.112,2.112,0,0,0-.693-.11,2.549,2.549,0,0,0-.912.183l-1.021-.95a2.122,2.122,0,0,0,.109-.694,2.189,2.189,0,1,0-4.194.877L5.459,12.073V4.731A.729.729,0,1,0,4,4.731v13.88H17.857a.731.731,0,0,0,0-1.461ZM16.034,8.6h0a.766.766,0,0,1,.547-.548h.182a.731.731,0,1,1-.729.731Zm-3.282,4.164a.73.73,0,0,1,.729.731v.073a.767.767,0,0,1-.62.657h-.109a.73.73,0,0,1-.729-.694h0a.73.73,0,0,1,.729-.767ZM8.741,9.114a.731.731,0,1,1-.729.731A.73.73,0,0,1,8.741,9.114Z" transform="translate(-4 -4)" fill="#b0b0b0"/>
</svg>
