<svg width="24" height="24" viewBox="0 0 24 24" fill="none" xmlns="http://www.w3.org/2000/svg">
<path d="M19.7778 2H4.22222C3.63285 2 3.06762 2.23413 2.65087 2.65087C2.23413 3.06762 2 3.63285 2 4.22222V19.7778C2 20.3671 2.23413 20.9324 2.65087 21.3491C3.06762 21.7659 3.63285 22 4.22222 22H19.7778C21 22 22 21 22 19.7778V4.22222C22 3 21 2 19.7778 2ZM19.7778 19.7778H4.22222V4.22222H19.7778V19.7778ZM10.8889 17.5556H13.1111V13.1111H17.5556V10.8889H13.1111V6.44444H10.8889V10.8889H6.44444V13.1111H10.8889V17.5556Z" fill="black"/>
</svg>
