<svg width="24" height="24" viewBox="0 0 24 24" fill="none" xmlns="http://www.w3.org/2000/svg">
<path fill-rule="evenodd" clip-rule="evenodd" d="M10.0033 2.93238C9.93996 2.4289 10.8046 2 11.75 2C12.6954 2 13.56 2.4289 13.4967 2.93238L12.6234 15.5195C12.6234 15.6432 12.5313 15.7618 12.3676 15.8492C12.2038 15.9366 11.9816 15.9857 11.75 15.9857C11.5184 15.9857 11.2962 15.9366 11.1324 15.8492C10.9687 15.7618 10.8766 15.6432 10.8766 15.5195L10.0033 2.93238ZM13.5 20.2518C13.5 21.2173 12.7165 22 11.75 22C10.7835 22 10 21.2173 10 20.2518C10 19.2863 10.7835 18.5036 11.75 18.5036C12.7165 18.5036 13.5 19.2863 13.5 20.2518Z" fill="black"/>
</svg>
