<svg width="24" height="24" viewBox="0 0 24 24" fill="none" xmlns="http://www.w3.org/2000/svg">
<path fill-rule="evenodd" clip-rule="evenodd" d="M6.06363 8.15376C6.10564 8.25499 6.1672 8.34694 6.2448 8.42435C6.32221 8.50195 6.41416 8.56351 6.51539 8.60552C6.61663 8.64753 6.72516 8.66915 6.83476 8.66915C6.94436 8.66915 7.05289 8.64753 7.15413 8.60552C7.25536 8.56351 7.34731 8.50195 7.42472 8.42435L11.0011 4.84659L11.0011 21.1667C11.0011 21.3877 11.0889 21.5997 11.2452 21.7559C11.4014 21.9122 11.6134 22 11.8344 22C12.0554 22 12.2673 21.9122 12.4236 21.7559C12.5799 21.5997 12.6677 21.3877 12.6677 21.1667L12.6677 4.84659L16.2441 8.42435C16.4005 8.58081 16.6127 8.66871 16.834 8.66871C17.0553 8.66871 17.2675 8.58081 17.424 8.42435C17.5804 8.26788 17.6683 8.05567 17.6683 7.83439C17.6683 7.61311 17.5804 7.4009 17.424 7.24443L12.4243 2.2448C12.3469 2.16721 12.255 2.10564 12.1538 2.06363C12.0525 2.02162 11.944 2 11.8344 2C11.7248 2 11.6163 2.02162 11.515 2.06363C11.4138 2.10564 11.3218 2.16721 11.2444 2.2448L6.2448 7.24443C6.1672 7.32184 6.10564 7.41379 6.06363 7.51503C6.02162 7.61626 6 7.72479 6 7.83439C6 7.94399 6.02162 8.05252 6.06363 8.15376Z" fill="black"/>
</svg>
