<svg width="24" height="24" viewBox="0 0 24 24" fill="none" xmlns="http://www.w3.org/2000/svg">
<g clip-path="url(#clip0)">
<path fill-rule="evenodd" clip-rule="evenodd" d="M12 -1.43099e-07C8.8174 -1.81051e-07 5.76515 1.26428 3.51472 3.51472C1.26428 5.76515 1.81051e-07 8.8174 1.43099e-07 12C1.05146e-07 15.1826 1.26428 18.2348 3.51472 20.4853C5.76515 22.7357 8.8174 24 12 24C15.1826 24 18.2348 22.7357 20.4853 20.4853C22.7357 18.2348 24 15.1826 24 12C24 8.8174 22.7357 5.76515 20.4853 3.51472C18.2348 1.26428 15.1826 -1.05146e-07 12 -1.43099e-07ZM8.031 12.531C7.89017 12.6718 7.69916 12.7509 7.5 12.7509C7.30084 12.7509 7.10983 12.6718 6.969 12.531C6.82817 12.3902 6.74905 12.1992 6.74905 12C6.74905 11.8008 6.82817 11.6098 6.969 11.469L11.469 6.969C11.5387 6.89915 11.6214 6.84374 11.7126 6.80593C11.8037 6.76812 11.9013 6.74866 12 6.74866C12.0987 6.74866 12.1963 6.76812 12.2875 6.80593C12.3786 6.84374 12.4613 6.89915 12.531 6.969L17.031 11.469C17.1007 11.5387 17.156 11.6215 17.1938 11.7126C17.2315 11.8037 17.2509 11.9014 17.2509 12C17.2509 12.0986 17.2315 12.1963 17.1938 12.2874C17.156 12.3785 17.1007 12.4613 17.031 12.531C16.9613 12.6007 16.8785 12.656 16.7874 12.6938C16.6963 12.7315 16.5986 12.7509 16.5 12.7509C16.4014 12.7509 16.3037 12.7315 16.2126 12.6938C16.1215 12.656 16.0387 12.6007 15.969 12.531L12.75 9.3105L12.75 16.5C12.75 16.6989 12.671 16.8897 12.5303 17.0303C12.3897 17.171 12.1989 17.25 12 17.25C11.8011 17.25 11.6103 17.171 11.4697 17.0303C11.329 16.8897 11.25 16.6989 11.25 16.5L11.25 9.3105L8.031 12.531Z" fill="black"/>
</g>
<defs>
<clipPath id="clip0">
<rect width="24" height="24" fill="white"/>
</clipPath>
</defs>
</svg>
