<svg width="24" height="24" viewBox="0 0 24 24" fill="none" xmlns="http://www.w3.org/2000/svg">
<path fill-rule="evenodd" clip-rule="evenodd" d="M8.15376 17.6047C8.25499 17.5627 8.34694 17.5011 8.42435 17.4235C8.50195 17.3461 8.56351 17.2542 8.60552 17.1529C8.64753 17.0517 8.66915 16.9432 8.66915 16.8336C8.66915 16.724 8.64753 16.6154 8.60552 16.5142C8.56351 16.413 8.50195 16.321 8.42435 16.2436L4.84659 12.6672H21.1667C21.3877 12.6672 21.5997 12.5794 21.7559 12.4232C21.9122 12.2669 22 12.0549 22 11.8339C22 11.613 21.9122 11.401 21.7559 11.2447C21.5997 11.0885 21.3877 11.0007 21.1667 11.0007H4.84659L8.42435 7.42427C8.58081 7.26781 8.66871 7.0556 8.66871 6.83432C8.66871 6.61304 8.58081 6.40083 8.42435 6.24436C8.26788 6.0879 8.05567 6 7.83439 6C7.61311 6 7.4009 6.0879 7.24443 6.24436L2.2448 11.244C2.16721 11.3214 2.10564 11.4133 2.06363 11.5146C2.02162 11.6158 2 11.7243 2 11.8339C2 11.9436 2.02162 12.0521 2.06363 12.1533C2.10564 12.2545 2.16721 12.3465 2.2448 12.4239L7.24443 17.4235C7.32184 17.5011 7.41379 17.5627 7.51503 17.6047C7.61626 17.6467 7.72479 17.6683 7.83439 17.6683C7.94399 17.6683 8.05252 17.6467 8.15376 17.6047Z" fill="black"/>
</svg>
