<svg width="24" height="24" viewBox="0 0 24 24" fill="none" xmlns="http://www.w3.org/2000/svg">
<g clip-path="url(#clip0)">
<path fill-rule="evenodd" clip-rule="evenodd" d="M12 24C8.8174 24 5.76515 22.7357 3.51472 20.4853C1.26428 18.2348 1.81051e-07 15.1826 1.43099e-07 12C1.05146e-07 8.8174 1.26428 5.76516 3.51472 3.51472C5.76515 1.26428 8.8174 1.81051e-07 12 1.43099e-07C15.1826 1.05146e-07 18.2348 1.26428 20.4853 3.51472C22.7357 5.76516 24 8.8174 24 12C24 15.1826 22.7357 18.2348 20.4853 20.4853C18.2348 22.7357 15.1826 24 12 24ZM8.031 11.469C7.89017 11.3282 7.69916 11.2491 7.5 11.2491C7.30084 11.2491 7.10983 11.3282 6.969 11.469C6.82817 11.6098 6.74905 11.8008 6.74905 12C6.74905 12.1992 6.82817 12.3902 6.969 12.531L11.469 17.031C11.5387 17.1008 11.6214 17.1563 11.7126 17.1941C11.8037 17.2319 11.9013 17.2513 12 17.2513C12.0987 17.2513 12.1963 17.2319 12.2875 17.1941C12.3786 17.1563 12.4613 17.1008 12.531 17.031L17.031 12.531C17.1007 12.4613 17.156 12.3785 17.1938 12.2874C17.2315 12.1963 17.2509 12.0986 17.2509 12C17.2509 11.9014 17.2315 11.8037 17.1938 11.7126C17.156 11.6215 17.1007 11.5387 17.031 11.469C16.9613 11.3993 16.8785 11.344 16.7874 11.3062C16.6963 11.2685 16.5986 11.2491 16.5 11.2491C16.4014 11.2491 16.3037 11.2685 16.2126 11.3062C16.1215 11.344 16.0387 11.3993 15.969 11.469L12.75 14.6895L12.75 7.5C12.75 7.30109 12.671 7.11032 12.5303 6.96967C12.3897 6.82902 12.1989 6.75 12 6.75C11.8011 6.75 11.6103 6.82902 11.4697 6.96967C11.329 7.11032 11.25 7.30109 11.25 7.5L11.25 14.6895L8.031 11.469Z" fill="black"/>
</g>
<defs>
<clipPath id="clip0">
<rect width="24" height="24" fill="white"/>
</clipPath>
</defs>
</svg>
