<svg width="24" height="24" viewBox="0 0 24 24" fill="none" xmlns="http://www.w3.org/2000/svg">
<path fill-rule="evenodd" clip-rule="evenodd" d="M15.8462 6.06363C15.745 6.10564 15.6531 6.1672 15.5757 6.2448C15.4981 6.32221 15.4365 6.41416 15.3945 6.51539C15.3525 6.61663 15.3308 6.72516 15.3308 6.83476C15.3308 6.94436 15.3525 7.05289 15.3945 7.15413C15.4365 7.25536 15.4981 7.34731 15.5757 7.42472L19.1534 11.0011H2.83327C2.61227 11.0011 2.40033 11.0889 2.24406 11.2452C2.08779 11.4014 2 11.6134 2 11.8344C2 12.0554 2.08779 12.2673 2.24406 12.4236C2.40033 12.5799 2.61227 12.6677 2.83327 12.6677H19.1534L15.5757 16.2441C15.4192 16.4005 15.3313 16.6127 15.3313 16.834C15.3313 17.0553 15.4192 17.2675 15.5757 17.424C15.7321 17.5804 15.9443 17.6683 16.1656 17.6683C16.3869 17.6683 16.5991 17.5804 16.7556 17.424L21.7552 12.4243C21.8328 12.3469 21.8944 12.255 21.9364 12.1538C21.9784 12.0525 22 11.944 22 11.8344C22 11.7248 21.9784 11.6163 21.9364 11.515C21.8944 11.4138 21.8328 11.3218 21.7552 11.2444L16.7556 6.2448C16.6782 6.1672 16.5862 6.10564 16.485 6.06363C16.3837 6.02162 16.2752 6 16.1656 6C16.056 6 15.9475 6.02162 15.8462 6.06363Z" fill="black"/>
</svg>
