<svg width="24" height="24" viewBox="0 0 24 24" fill="none" xmlns="http://www.w3.org/2000/svg">
<path fill-rule="evenodd" clip-rule="evenodd" d="M0 12C0 15.1826 1.26428 18.2348 3.51472 20.4853C5.76515 22.7357 8.8174 24 12 24C15.1826 24 18.2348 22.7357 20.4853 20.4853C22.7357 18.2348 24 15.1826 24 12C24 8.8174 22.7357 5.76516 20.4853 3.51472C18.2348 1.26428 15.1826 0 12 0C8.8174 0 5.76515 1.26428 3.51472 3.51472C1.26428 5.76516 0 8.8174 0 12ZM12.531 15.969C12.6718 16.1098 12.7509 16.3008 12.7509 16.5C12.7509 16.6992 12.6718 16.8902 12.531 17.031C12.3902 17.1718 12.1992 17.2509 12 17.2509C11.8008 17.2509 11.6098 17.1718 11.469 17.031L6.969 12.531C6.89915 12.4613 6.84374 12.3786 6.80593 12.2874C6.76812 12.1963 6.74866 12.0987 6.74866 12C6.74866 11.9013 6.76812 11.8037 6.80593 11.7125C6.84374 11.6214 6.89915 11.5387 6.969 11.469L11.469 6.969C11.5387 6.89927 11.6215 6.84395 11.7126 6.80621C11.8037 6.76848 11.9014 6.74905 12 6.74905C12.0986 6.74905 12.1963 6.76848 12.2874 6.80621C12.3785 6.84395 12.4613 6.89927 12.531 6.969C12.6007 7.03873 12.656 7.12152 12.6938 7.21262C12.7315 7.30373 12.7509 7.40138 12.7509 7.5C12.7509 7.59862 12.7315 7.69627 12.6938 7.78738C12.656 7.87848 12.6007 7.96127 12.531 8.031L9.3105 11.25H16.5C16.6989 11.25 16.8897 11.329 17.0303 11.4697C17.171 11.6103 17.25 11.8011 17.25 12C17.25 12.1989 17.171 12.3897 17.0303 12.5303C16.8897 12.671 16.6989 12.75 16.5 12.75H9.3105L12.531 15.969Z" fill="black"/>
</svg>
