<svg width="24" height="24" viewBox="0 0 24 24" fill="none" xmlns="http://www.w3.org/2000/svg">
<path fill-rule="evenodd" clip-rule="evenodd" d="M24 12C24 15.1826 22.7357 18.2348 20.4853 20.4853C18.2348 22.7357 15.1826 24 12 24C8.8174 24 5.76516 22.7357 3.51472 20.4853C1.26428 18.2348 0 15.1826 0 12C0 8.8174 1.26428 5.76516 3.51472 3.51472C5.76516 1.26428 8.8174 0 12 0C15.1826 0 18.2348 1.26428 20.4853 3.51472C22.7357 5.76516 24 8.8174 24 12ZM11.469 15.969C11.3282 16.1098 11.2491 16.3008 11.2491 16.5C11.2491 16.6992 11.3282 16.8902 11.469 17.031C11.6098 17.1718 11.8008 17.2509 12 17.2509C12.1992 17.2509 12.3902 17.1718 12.531 17.031L17.031 12.531C17.1008 12.4613 17.1563 12.3786 17.1941 12.2874C17.2319 12.1963 17.2513 12.0987 17.2513 12C17.2513 11.9013 17.2319 11.8037 17.1941 11.7125C17.1563 11.6214 17.1008 11.5387 17.031 11.469L12.531 6.969C12.4613 6.89927 12.3785 6.84395 12.2874 6.80621C12.1963 6.76848 12.0986 6.74905 12 6.74905C11.9014 6.74905 11.8037 6.76848 11.7126 6.80621C11.6215 6.84395 11.5387 6.89927 11.469 6.969C11.3993 7.03873 11.344 7.12152 11.3062 7.21262C11.2685 7.30373 11.2491 7.40138 11.2491 7.5C11.2491 7.59862 11.2685 7.69627 11.3062 7.78738C11.344 7.87848 11.3993 7.96127 11.469 8.031L14.6895 11.25H7.5C7.30109 11.25 7.11032 11.329 6.96967 11.4697C6.82902 11.6103 6.75 11.8011 6.75 12C6.75 12.1989 6.82902 12.3897 6.96967 12.5303C7.11032 12.671 7.30109 12.75 7.5 12.75H14.6895L11.469 15.969Z" fill="black"/>
</svg>
