<svg width="24" height="24" viewBox="0 0 24 24" fill="none" xmlns="http://www.w3.org/2000/svg">
<path fill-rule="evenodd" clip-rule="evenodd" d="M6.06363 15.8462C6.10564 15.745 6.1672 15.6531 6.2448 15.5757C6.32221 15.4981 6.41416 15.4365 6.51539 15.3945C6.61663 15.3525 6.72516 15.3308 6.83476 15.3308C6.94436 15.3308 7.05289 15.3525 7.15413 15.3945C7.25536 15.4365 7.34731 15.4981 7.42472 15.5757L11.0011 19.1534L11.0011 2.83327C11.0011 2.61227 11.0889 2.40033 11.2452 2.24406C11.4014 2.08779 11.6134 2 11.8344 2C12.0554 2 12.2673 2.08779 12.4236 2.24406C12.5799 2.40033 12.6677 2.61227 12.6677 2.83327L12.6677 19.1534L16.2441 15.5757C16.4005 15.4192 16.6127 15.3313 16.834 15.3313C17.0553 15.3313 17.2675 15.4192 17.424 15.5757C17.5804 15.7321 17.6683 15.9443 17.6683 16.1656C17.6683 16.3869 17.5804 16.5991 17.424 16.7556L12.4243 21.7552C12.3469 21.8328 12.255 21.8944 12.1538 21.9364C12.0525 21.9784 11.944 22 11.8344 22C11.7248 22 11.6163 21.9784 11.515 21.9364C11.4138 21.8944 11.3218 21.8328 11.2444 21.7552L6.2448 16.7556C6.1672 16.6782 6.10564 16.5862 6.06363 16.485C6.02162 16.3837 6 16.2752 6 16.1656C6 16.056 6.02162 15.9475 6.06363 15.8462Z" fill="black"/>
</svg>
