<svg width="24" height="24" viewBox="0 0 24 24" fill="none" xmlns="http://www.w3.org/2000/svg">
<path d="M13.7198 2C12.5823 2 11.4915 2.47889 10.6872 3.33133C9.88287 4.18377 9.43102 5.33993 9.43102 6.54545V15.6364C9.43102 17.1427 10.583 18.3636 12.0043 18.3636C13.4256 18.3636 14.569 17.1427 14.569 15.6364V6.54545H12.862V15.6364C12.862 15.8775 12.7717 16.1087 12.6108 16.2792C12.45 16.4497 12.2318 16.5455 12.0043 16.5455C11.7768 16.5455 11.5586 16.4497 11.3978 16.2792C11.2369 16.1087 11.1465 15.8775 11.1465 15.6364V6.54545C11.1465 6.1873 11.2131 5.83266 11.3424 5.50177C11.4717 5.17088 11.6613 4.87023 11.9002 4.61698C12.1392 4.36373 12.4229 4.16284 12.7351 4.02578C13.0473 3.88872 13.3819 3.81818 13.7198 3.81818C14.0577 3.81818 14.3923 3.88872 14.7045 4.02578C15.0167 4.16284 15.3004 4.36373 15.5394 4.61698C15.7783 4.87023 15.9679 5.17088 16.0972 5.50177C16.2265 5.83266 16.2931 6.1873 16.2931 6.54545V15.75C16.2931 18.2609 14.3734 20.1818 12.0043 20.1818C9.63517 20.1818 7.71551 18.1473 7.71551 15.6364V11.0909H6V15.6364C6 19.1509 8.68821 22 12.0043 22C15.3204 22 18 19.1509 18 15.6364V6.54545C18 4.03455 16.0889 2 13.7198 2Z" fill="black"/>
</svg>
