<svg width="16" height="16" viewBox="0 0 16 16" fill="none" xmlns="http://www.w3.org/2000/svg">
<path d="M8 1L16 4.2V5.26667H14.9333C14.9333 5.41111 14.8764 5.53611 14.7625 5.64167C14.6486 5.74722 14.5139 5.8 14.3583 5.8H1.64167C1.48611 5.8 1.35139 5.74722 1.2375 5.64167C1.12361 5.53611 1.06667 5.41111 1.06667 5.26667H0V4.2L8 1ZM2.13333 6.33333H4.26667V12.7333H5.33333V6.33333H7.46667V12.7333H8.53333V6.33333H10.6667V12.7333H11.7333V6.33333H13.8667V12.7333H14.3583C14.5139 12.7333 14.6486 12.7861 14.7625 12.8917C14.8764 12.9972 14.9333 13.1222 14.9333 13.2667V13.8H1.06667V13.2667C1.06667 13.1222 1.12361 12.9972 1.2375 12.8917C1.35139 12.7861 1.48611 12.7333 1.64167 12.7333H2.13333V6.33333ZM15.425 14.3333C15.5806 14.3333 15.7153 14.3861 15.8292 14.4917C15.9431 14.5972 16 14.7222 16 14.8667V15.9333H0V14.8667C0 14.7222 0.0569444 14.5972 0.170833 14.4917C0.284722 14.3861 0.419444 14.3333 0.575 14.3333H15.425Z" fill="black"/>
</svg>
