<svg width="24" height="24" viewBox="0 0 24 24" fill="none" xmlns="http://www.w3.org/2000/svg">
<path d="M20.9 15.7556C19.5333 15.7556 18.2111 15.5333 16.9778 15.1333C16.7846 15.0678 16.5768 15.0581 16.3783 15.1053C16.1798 15.1524 15.9987 15.2546 15.8556 15.4L14.1111 17.5889C10.9667 16.0889 8.02222 13.2556 6.45556 10L8.62222 8.15556C8.92222 7.84444 9.01111 7.41111 8.88889 7.02222C8.47778 5.78889 8.26667 4.46667 8.26667 3.1C8.26667 2.5 7.76667 2 7.16667 2H3.32222C2.72222 2 2 2.26667 2 3.1C2 13.4222 10.5889 22 20.9 22C21.6889 22 22 21.3 22 20.6889V16.8556C22 16.2556 21.5 15.7556 20.9 15.7556Z" fill="black"/>
</svg>
