<svg width="24" height="24" viewBox="0 0 24 24" fill="none" xmlns="http://www.w3.org/2000/svg">
<path fill-rule="evenodd" clip-rule="evenodd" d="M18.8687 4.53526C19.2116 4.19362 19.6745 4.00135 20.1573 4.00001C20.6401 3.99867 21.1041 4.18837 21.4488 4.5281C21.7936 4.86784 21.9915 5.3303 21.9997 5.81551C22.008 6.30073 21.8259 6.7697 21.4928 7.12105L11.7117 19.4097C11.5436 19.5917 11.3408 19.7377 11.1152 19.8391C10.8897 19.9405 10.6461 19.9951 10.3991 19.9997C10.152 20.0043 9.90664 19.9588 9.67751 19.8659C9.44839 19.7729 9.24026 19.6345 9.06557 19.4589L2.58488 12.9428C2.40433 12.7737 2.25952 12.5698 2.15908 12.3432C2.05865 12.1166 2.00464 11.8721 2.00029 11.6241C1.99593 11.3761 2.04132 11.1297 2.13374 10.8997C2.22617 10.6698 2.36373 10.4608 2.53823 10.2855C2.71273 10.1101 2.92058 9.97181 3.1494 9.87892C3.37822 9.78602 3.6233 9.7404 3.87004 9.74478C4.11678 9.74915 4.36012 9.80344 4.58553 9.90438C4.81094 10.0053 5.01382 10.1509 5.18205 10.3323L10.3127 15.4867L18.8221 4.58944C18.8373 4.57036 18.8537 4.55227 18.8711 4.53526H18.8687Z" fill="black"/>
</svg>
