<svg width="24" height="24" viewBox="0 0 24 24" fill="none" xmlns="http://www.w3.org/2000/svg">
<path d="M4.85714 2C4.09938 2 3.37266 2.30102 2.83684 2.83684C2.30102 3.37266 2 4.09938 2 4.85714V19.1429C2 19.9006 2.30102 20.6273 2.83684 21.1632C3.37266 21.699 4.09938 22 4.85714 22H19.1429C19.9006 22 20.6273 21.699 21.1632 21.1632C21.699 20.6273 22 19.9006 22 19.1429V4.85714C22 4.09938 21.699 3.37266 21.1632 2.83684C20.6273 2.30102 19.9006 2 19.1429 2H4.85714ZM10.5714 16.8771L6.70429 13.01L8.72429 10.99L10.5714 12.8371L15.99 7.41857L18.01 9.43857L10.5714 16.8771Z" fill="black"/>
</svg>
