<svg width="24" height="24" viewBox="0 0 24 24" fill="none" xmlns="http://www.w3.org/2000/svg">
<path d="M4.85657 2C4.09896 2 3.37238 2.30096 2.83667 2.83667C2.30096 3.37238 2 4.09896 2 4.85657V19.1394C2 19.897 2.30096 20.6236 2.83667 21.1593C3.37238 21.695 4.09896 21.996 4.85657 21.996H19.1394C19.897 21.996 20.6236 21.695 21.1593 21.1593C21.695 20.6236 21.996 19.897 21.996 19.1394V4.85657C21.996 4.09896 21.695 3.37238 21.1593 2.83667C20.6236 2.30096 19.897 2 19.1394 2H4.85657ZM10.5697 16.8742L6.70335 13.0078L8.72294 10.9882L10.5697 12.835L15.9872 7.41749L18.0068 9.43708L10.5697 16.8742Z" fill="black"/>
<rect x="2.5" y="2.5" width="19" height="19" rx="1.9" stroke="#FF3D3D"/>
</svg>
