<svg width="24" height="24" viewBox="0 0 24 24" fill="none" xmlns="http://www.w3.org/2000/svg">
<path fill-rule="evenodd" clip-rule="evenodd" d="M16.4177 5.07693H18.5C19.3285 5.07693 20 5.76573 20 6.6154V20.4615C20 21.3112 19.3285 22 18.5 22H6.49996C5.67154 22 5 21.3112 5 20.4615V6.6154C5 5.76573 5.67158 5.07693 6.50001 5.07693H8.58226C8.85976 4.76063 9.2162 4.51871 9.62579 4.39765C9.97155 4.29549 10.238 4.02323 10.3374 3.66861C10.6077 2.705 11.4736 2 12.5 2C13.5265 2 14.3924 2.705 14.6627 3.66866C14.762 4.02289 15.0278 4.29549 15.3731 4.39731C15.7831 4.51828 16.1399 4.76044 16.4177 5.07693ZM13.2597 4.3077C13.2597 3.88284 12.9239 3.53847 12.5097 3.53847C12.0954 3.53847 11.7597 3.88284 11.7597 4.3077C11.7597 4.73251 12.0955 5.07693 12.5097 5.07693C12.9239 5.07693 13.2597 4.73251 13.2597 4.3077ZM6.50001 20.4615H18.5V6.6154H17.0001V8.15386H8.00002V6.6154H6.50001V20.4615ZM8.76933 10.4615H16.2309C16.6557 10.4615 17.0001 10.8059 17.0001 11.2307C17.0001 11.6556 16.6557 12 16.2309 12H8.76933C8.34449 12 8.00009 11.6556 8.00009 11.2307C8.00009 10.8059 8.34449 10.4615 8.76933 10.4615ZM8.76933 13.5384H16.2309C16.6557 13.5384 17.0001 13.8828 17.0001 14.3076C17.0001 14.7325 16.6557 15.0769 16.2309 15.0769H8.76933C8.34449 15.0769 8.00009 14.7325 8.00009 14.3076C8.00009 13.8828 8.34449 13.5384 8.76933 13.5384ZM13.2309 16.6154H8.76933C8.34449 16.6154 8.00009 16.9597 8.00009 17.3846C8.00009 17.8094 8.34449 18.1538 8.76933 18.1538H13.2309C13.6557 18.1538 14.0001 17.8094 14.0001 17.3846C14.0001 16.9597 13.6557 16.6154 13.2309 16.6154Z" fill="black"/>
</svg>
