<svg width="24" height="24" viewBox="0 0 24 24" fill="none" xmlns="http://www.w3.org/2000/svg">
<path d="M13.414 12L16.243 9.172C16.3359 9.07909 16.4096 8.96879 16.4599 8.8474C16.5102 8.726 16.5361 8.5959 16.5361 8.4645C16.5361 8.33311 16.5102 8.203 16.4599 8.0816C16.4096 7.96021 16.3359 7.84991 16.243 7.757C16.1501 7.66409 16.0398 7.59039 15.9184 7.54011C15.797 7.48982 15.6669 7.46394 15.5355 7.46394C15.4041 7.46394 15.274 7.48982 15.1526 7.54011C15.0312 7.59039 14.9209 7.66409 14.828 7.757L12 10.586L9.172 7.757C8.98436 7.56936 8.72986 7.46394 8.4645 7.46394C8.19914 7.46394 7.94464 7.56936 7.757 7.757C7.56936 7.94464 7.46394 8.19914 7.46394 8.4645C7.46394 8.5959 7.48982 8.726 7.54011 8.8474C7.59039 8.96879 7.66409 9.07909 7.757 9.172L10.586 12L7.757 14.828C7.56936 15.0156 7.46394 15.2701 7.46394 15.5355C7.46394 15.8009 7.56936 16.0554 7.757 16.243C7.94464 16.4306 8.19914 16.5361 8.4645 16.5361C8.72986 16.5361 8.98436 16.4306 9.172 16.243L12 13.414L14.828 16.243C15.0156 16.4306 15.2701 16.5361 15.5355 16.5361C15.8009 16.5361 16.0554 16.4306 16.243 16.243C16.4306 16.0554 16.5361 15.8009 16.5361 15.5355C16.5361 15.2701 16.4306 15.0156 16.243 14.828L13.414 12ZM12 22C6.477 22 2 17.523 2 12C2 6.477 6.477 2 12 2C17.523 2 22 6.477 22 12C22 17.523 17.523 22 12 22Z" fill="black"/>
</svg>
