<svg width="24" height="24" viewBox="0 0 24 24" fill="none" xmlns="http://www.w3.org/2000/svg">
<path d="M14.3495 11.9986L21.5103 4.85447C21.8238 4.54089 22 4.11558 22 3.67211C22 3.22864 21.8238 2.80333 21.5103 2.48975C21.1967 2.17617 20.7714 2 20.3279 2C19.8844 2 19.4591 2.17617 19.1455 2.48975L12.0014 9.65052L4.85731 2.48975C4.54373 2.17617 4.11842 2 3.67495 2C3.23148 2 2.80617 2.17617 2.49259 2.48975C2.17901 2.80333 2.00284 3.22864 2.00284 3.67211C2.00284 4.11558 2.17901 4.54089 2.49259 4.85447L9.65336 11.9986L2.49259 19.1427C2.33651 19.2975 2.21262 19.4817 2.12807 19.6846C2.04353 19.8875 2 20.1052 2 20.3251C2 20.5449 2.04353 20.7626 2.12807 20.9655C2.21262 21.1684 2.33651 21.3526 2.49259 21.5074C2.6474 21.6635 2.83159 21.7874 3.03452 21.8719C3.23745 21.9565 3.45511 22 3.67495 22C3.89479 22 4.11245 21.9565 4.31538 21.8719C4.51832 21.7874 4.7025 21.6635 4.85731 21.5074L12.0014 14.3466L19.1455 21.5074C19.3003 21.6635 19.4845 21.7874 19.6875 21.8719C19.8904 21.9565 20.1081 22 20.3279 22C20.5477 22 20.7654 21.9565 20.9683 21.8719C21.1713 21.7874 21.3554 21.6635 21.5103 21.5074C21.6663 21.3526 21.7902 21.1684 21.8748 20.9655C21.9593 20.7626 22.0028 20.5449 22.0028 20.3251C22.0028 20.1052 21.9593 19.8875 21.8748 19.6846C21.7902 19.4817 21.6663 19.2975 21.5103 19.1427L14.3495 11.9986Z" fill="black"/>
</svg>
