<svg width="24" height="24" viewBox="0 0 24 24" fill="none" xmlns="http://www.w3.org/2000/svg">
<path d="M13.414 12L16.243 14.828C16.4306 15.0156 16.5361 15.2701 16.5361 15.5355C16.5361 15.8009 16.4306 16.0554 16.243 16.243C16.0554 16.4306 15.8009 16.5361 15.5355 16.5361C15.2701 16.5361 15.0156 16.4306 14.828 16.243L12 13.414L9.172 16.243C8.98436 16.4306 8.72986 16.5361 8.4645 16.5361C8.19914 16.5361 7.94464 16.4306 7.757 16.243C7.56936 16.0554 7.46394 15.8009 7.46394 15.5355C7.46394 15.4041 7.48982 15.274 7.54011 15.1526C7.59039 15.0312 7.66409 14.9209 7.757 14.828L10.586 12L7.757 9.172C7.56936 8.98436 7.46394 8.72986 7.46394 8.4645C7.46394 8.33311 7.48982 8.203 7.54011 8.0816C7.59039 7.96021 7.66409 7.84991 7.757 7.757C7.84991 7.66409 7.96021 7.59039 8.0816 7.54011C8.203 7.48982 8.33311 7.46394 8.4645 7.46394C8.72986 7.46394 8.98436 7.56936 9.172 7.757L12 10.586L14.828 7.757C15.0156 7.56936 15.2701 7.46394 15.5355 7.46394C15.8009 7.46394 16.0554 7.56936 16.243 7.757C16.4306 7.94464 16.5361 8.19914 16.5361 8.4645C16.5361 8.72986 16.4306 8.98436 16.243 9.172L13.414 12ZM12 22C6.477 22 2 17.523 2 12C2 6.477 6.477 2 12 2C17.523 2 22 6.477 22 12C22 17.523 17.523 22 12 22ZM12 20C14.1217 20 16.1566 19.1571 17.6569 17.6569C19.1571 16.1566 20 14.1217 20 12C20 9.87827 19.1571 7.84344 17.6569 6.34315C16.1566 4.84285 14.1217 4 12 4C9.87827 4 7.84344 4.84285 6.34315 6.34315C4.84285 7.84344 4 9.87827 4 12C4 14.1217 4.84285 16.1566 6.34315 17.6569C7.84344 19.1571 9.87827 20 12 20Z" fill="black"/>
</svg>
