<svg width="24" height="24" viewBox="0 0 24 24" fill="none" xmlns="http://www.w3.org/2000/svg">
<path d="M2 18.0672V21.4445C2 21.7556 2.24441 22 2.55548 22H5.9328C6.07722 22 6.22165 21.9445 6.32164 21.8334L18.4533 9.71278L14.2872 5.54668L2.16664 17.6673C2.05555 17.7784 2 17.9117 2 18.0672ZM21.6751 6.491C21.7781 6.38822 21.8598 6.26613 21.9156 6.13174C21.9713 5.99734 22 5.85327 22 5.70777C22 5.56227 21.9713 5.4182 21.9156 5.2838C21.8598 5.1494 21.7781 5.02732 21.6751 4.92454L19.0755 2.32489C18.9727 2.2219 18.8506 2.1402 18.7162 2.08445C18.5818 2.0287 18.4377 2 18.2922 2C18.1467 2 18.0027 2.0287 17.8683 2.08445C17.7339 2.1402 17.6118 2.2219 17.509 2.32489L15.4759 4.35795L19.642 8.52405L21.6751 6.491Z" fill="black"/>
</svg>
