<svg width="24" height="24" viewBox="0 0 24 24" fill="none" xmlns="http://www.w3.org/2000/svg">
<path fill-rule="evenodd" clip-rule="evenodd" d="M17.3637 2.20434C17.6362 1.93189 18.0779 1.93189 18.3504 2.20434L21.7957 5.64965C22.0681 5.92211 22.0681 6.36385 21.7957 6.63631L8.01444 20.4175C7.92427 20.5077 7.81555 20.568 7.70057 20.5985L2.88936 21.9731C2.64573 22.0427 2.38352 21.9748 2.20436 21.7956C2.0252 21.6165 1.95725 21.3543 2.02686 21.1106L3.4015 16.2994C3.43199 16.1844 3.49231 16.0757 3.58248 15.9856L14.6071 4.96098C14.6072 4.96085 14.6069 4.96111 14.6071 4.96098C14.6072 4.96085 14.6077 4.96032 14.6078 4.96019L17.3637 2.20434ZM4.4209 17.8106L6.18936 19.5791L3.71352 20.2865L4.4209 17.8106ZM7.52111 18.9375L5.06247 16.4789L15.1008 6.44058L17.5594 8.89922L7.52111 18.9375ZM18.5461 7.91256L16.0874 5.45392L17.857 3.68433L20.3157 6.14298L18.5461 7.91256Z" fill="black"/>
</svg>
