<svg width="24" height="24" viewBox="0 0 24 24" fill="none" xmlns="http://www.w3.org/2000/svg">
<path d="M19.7864 7.01339L14.8955 2.20982C14.7591 2.07589 14.575 2 14.3818 2H4.72727C4.325 2 4 2.3192 4 2.71429V21.2857C4 21.6808 4.325 22 4.72727 22H19.2727C19.675 22 20 21.6808 20 21.2857V7.52009C20 7.33036 19.9227 7.14732 19.7864 7.01339ZM18.3227 7.84821H14.0455V3.64732L18.3227 7.84821ZM18.3636 20.3929H5.63636V3.60714H12.5V8.42857C12.5 8.67721 12.6006 8.91567 12.7796 9.09148C12.9586 9.2673 13.2014 9.36607 13.4545 9.36607H18.3636V20.3929ZM11.8182 14.3661H7.63636C7.53636 14.3661 7.45455 14.4464 7.45455 14.5446V15.6161C7.45455 15.7143 7.53636 15.7946 7.63636 15.7946H11.8182C11.9182 15.7946 12 15.7143 12 15.6161V14.5446C12 14.4464 11.9182 14.3661 11.8182 14.3661ZM7.45455 11.5089V12.5804C7.45455 12.6786 7.53636 12.7589 7.63636 12.7589H16.3636C16.4636 12.7589 16.5455 12.6786 16.5455 12.5804V11.5089C16.5455 11.4107 16.4636 11.3304 16.3636 11.3304H7.63636C7.53636 11.3304 7.45455 11.4107 7.45455 11.5089Z" fill="black"/>
</svg>
