<svg width="24" height="24" viewBox="0 0 24 24" fill="none" xmlns="http://www.w3.org/2000/svg">
<path fill-rule="evenodd" clip-rule="evenodd" d="M21.6377 4H18.2523C18.052 4 17.8897 4.14915 17.8897 4.33334V19.6664C17.8897 19.8506 18.052 19.9998 18.2523 19.9998H21.6374C21.8378 19.9998 22 19.8506 22 19.6664V4.33334C22 4.14937 21.8378 4 21.6377 4ZM7.66817 7.67193H11.0535C11.2536 7.67193 11.4159 7.82087 11.4159 8.00505V19.6667C11.4159 19.8508 11.2539 20 11.0535 20H7.66817C7.46783 20 7.3056 19.8508 7.3056 19.6667V8.00527C7.3056 7.82109 7.46783 7.67193 7.66817 7.67193ZM12.9467 11.3439H16.3321C16.5324 11.3439 16.6946 11.493 16.6946 11.6772V19.6664C16.6946 19.8506 16.5324 19.9998 16.3321 19.9998H12.9467C12.7464 19.9998 12.5841 19.8506 12.5841 19.6664V11.6772C12.5841 11.493 12.7464 11.3439 12.9467 11.3439ZM2.36257 14.0978H5.74795C5.94829 14.0978 6.11052 14.2472 6.11052 14.4311V19.6664C6.11052 19.8506 5.94829 19.9998 5.74795 19.9998H2.36257C2.16224 19.9998 2 19.8506 2 19.6664V14.4311C2 14.247 2.16224 14.0978 2.36257 14.0978Z" fill="black"/>
</svg>
