<svg width="24" height="24" viewBox="0 0 24 24" fill="none" xmlns="http://www.w3.org/2000/svg">
<path fill-rule="evenodd" clip-rule="evenodd" d="M18.2897 4.39998V19.5998H21.6V4.39998H18.2897ZM17.4897 4.33331C17.4897 3.89722 17.8634 3.59998 18.2523 3.59998H21.6377C22.0267 3.59998 22.4 3.89777 22.4 4.33331V19.6664C22.4 20.1025 22.0264 20.3998 21.6374 20.3998H18.2523C17.8634 20.3998 17.4897 20.1025 17.4897 19.6664V4.33331ZM6.90561 8.00525C6.90561 7.56915 7.27925 7.27191 7.66818 7.27191H11.0536C11.4421 7.27191 11.8159 7.56877 11.8159 8.00502V19.6666C11.8159 20.1024 11.4428 20.4 11.0536 20.4H7.66818C7.27925 20.4 6.90561 20.1027 6.90561 19.6666V8.00525ZM7.70561 8.07191V19.6H11.0159V8.07191H7.70561ZM12.1841 11.6772C12.1841 11.2411 12.5578 10.9438 12.9467 10.9438H16.3321C16.721 10.9438 17.0946 11.2411 17.0946 11.6772V19.6664C17.0946 20.1025 16.721 20.3997 16.3321 20.3997H12.9467C12.5578 20.3997 12.1841 20.1025 12.1841 19.6664V11.6772ZM12.9467 11.7438L12.9467 11.7438C12.9467 11.7438 12.9467 11.7438 12.9467 11.7438ZM12.9841 11.7438H16.2946V19.5997H12.9841V11.7438ZM1.60001 14.4311C1.60001 13.995 1.97365 13.6978 2.36258 13.6978H5.74795C6.13706 13.6978 6.51053 13.9954 6.51053 14.4311V19.6664C6.51053 20.1025 6.13688 20.3998 5.74795 20.3998H2.36258C1.97365 20.3998 1.60001 20.1025 1.60001 19.6664V14.4311ZM2.40001 14.4978V19.5998H5.71053V14.4978H2.40001Z" fill="black"/>
</svg>
