<svg width="24" height="24" viewBox="0 0 24 24" fill="none" xmlns="http://www.w3.org/2000/svg">
<path d="M20 11.9849C20.0081 16.3926 16.4135 19.9969 12.0058 20C10.1021 20.0014 8.35345 19.3377 6.97929 18.2287C6.62197 17.9403 6.59526 17.4048 6.91997 17.0801L7.28342 16.7166C7.56113 16.4389 8.00448 16.4085 8.31216 16.6526C9.32458 17.456 10.6058 17.9355 12 17.9355C15.2808 17.9355 17.9355 15.2803 17.9355 12C17.9355 8.7192 15.2803 6.06452 12 6.06452C10.4253 6.06452 8.99519 6.67642 7.93329 7.67523L9.57051 9.31246C9.89567 9.63762 9.66538 10.1936 9.20558 10.1936H4.51613C4.23106 10.1936 4 9.96249 4 9.67743V4.98797C4 4.52816 4.55593 4.29787 4.8811 4.623L6.47374 6.21565C7.90996 4.8431 9.85651 4 12 4C16.4132 4 19.9918 7.57355 20 11.9849ZM14.1641 14.5263L14.481 14.1189C14.7435 13.7814 14.6827 13.295 14.3452 13.0325L13.0323 12.0113V8.64517C13.0323 8.21759 12.6856 7.87097 12.2581 7.87097H11.7419C11.3143 7.87097 10.9677 8.21759 10.9677 8.64517V13.021L13.0777 14.6621C13.4152 14.9246 13.9016 14.8638 14.1641 14.5263Z" fill="black"/>
</svg>
