<svg width="24" height="24" viewBox="0 0 24 24" fill="none" xmlns="http://www.w3.org/2000/svg">
<path d="M20.4201 10.1758L12.7101 2.2958C12.6172 2.20207 12.5066 2.12768 12.3847 2.07691C12.2628 2.02614 12.1321 2 12.0001 2C11.8681 2 11.7374 2.02614 11.6155 2.07691C11.4937 2.12768 11.3831 2.20207 11.2901 2.2958L3.58012 10.1858C3.39355 10.3739 3.24621 10.5971 3.14664 10.8426C3.04708 11.0881 2.99727 11.3509 3.00012 11.6158V19.9958C2.99934 20.5077 3.19489 21.0004 3.54649 21.3725C3.89809 21.7446 4.37898 21.9676 4.89012 21.9958H19.1101C19.6213 21.9676 20.1021 21.7446 20.4537 21.3725C20.8053 21.0004 21.0009 20.5077 21.0001 19.9958V11.6158C21.0009 11.0787 20.7929 10.5624 20.4201 10.1758ZM10.0001 19.9958V13.9958H14.0001V19.9958H10.0001ZM19.0001 19.9958H16.0001V12.9958C16.0001 12.7306 15.8948 12.4762 15.7072 12.2887C15.5197 12.1012 15.2653 11.9958 15.0001 11.9958H9.00012C8.7349 11.9958 8.48055 12.1012 8.29301 12.2887C8.10547 12.4762 8.00012 12.7306 8.00012 12.9958V19.9958H5.00012V11.5758L12.0001 4.4258L19.0001 11.6158V19.9958Z" fill="black"/>
</svg>
