<svg width="24" height="24" viewBox="0 0 24 24" fill="none" xmlns="http://www.w3.org/2000/svg">
<path d="M21.743 12.331L12.743 2.331C12.364 1.909 11.636 1.909 11.257 2.331L2.25701 12.331C2.12747 12.4746 2.04244 12.6527 2.01226 12.8438C1.98208 13.0348 2.00805 13.2305 2.08701 13.407C2.24701 13.768 2.60501 14 3.00001 14H5.00001V21C5.00001 21.2652 5.10537 21.5196 5.29291 21.7071C5.48044 21.8946 5.7348 22 6.00001 22H9.00001C9.26523 22 9.51958 21.8946 9.70712 21.7071C9.89466 21.5196 10 21.2652 10 21V17H14V21C14 21.2652 14.1054 21.5196 14.2929 21.7071C14.4804 21.8946 14.7348 22 15 22H18C18.2652 22 18.5196 21.8946 18.7071 21.7071C18.8947 21.5196 19 21.2652 19 21V14H21C21.1937 14.0008 21.3834 13.9453 21.546 13.8401C21.7087 13.735 21.8372 13.5848 21.916 13.4079C21.9948 13.231 22.0203 13.0349 21.9896 12.8437C21.9589 12.6525 21.8732 12.4744 21.743 12.331Z" fill="black"/>
</svg>
