<svg width="24" height="24" viewBox="0 0 24 24" fill="none" xmlns="http://www.w3.org/2000/svg">
<path fill-rule="evenodd" clip-rule="evenodd" d="M4 3H20C21.103 3 22 4.00912 22 5.25V18.75C22 19.9909 21.103 21 20 21H4C2.897 21 2 19.9909 2 18.75V5.25C2 4.00912 2.897 3 4 3ZM4 5.25V18.75H20.002L20 5.25H4ZM7.5 10.875C8.32843 10.875 9 10.1195 9 9.1875C9 8.25552 8.32843 7.5 7.5 7.5C6.67157 7.5 6 8.25552 6 9.1875C6 10.1195 6.67157 10.875 7.5 10.875ZM10.5 14.25L9 12L6 16.5H18L13.5 9.75L10.5 14.25Z" fill="black"/>
</svg>
