<svg width="24" height="24" viewBox="0 0 24 24" fill="none" xmlns="http://www.w3.org/2000/svg">
<path d="M4 5C3.46957 5 2.96086 5.21071 2.58579 5.58579C2.21071 5.96086 2 6.46957 2 7V17C2 17.5304 2.21071 18.0391 2.58579 18.4142C2.96086 18.7893 3.46957 19 4 19H20C20.5304 19 21.0391 18.7893 21.4142 18.4142C21.7893 18.0391 22 17.5304 22 17V7C22 6.46957 21.7893 5.96086 21.4142 5.58579C21.0391 5.21071 20.5304 5 20 5H4ZM4 7H20V17H4V7ZM5 8V10H7V8H5ZM8 8V10H10V8H8ZM11 8V10H13V8H11ZM14 8V10H16V8H14ZM17 8V10H19V8H17ZM5 11V13H7V11H5ZM8 11V13H10V11H8ZM11 11V13H13V11H11ZM14 11V13H16V11H14ZM17 11V13H19V11H17ZM8 14V16H16V14H8Z" fill="black"/>
</svg>
