<svg width="24" height="24" viewBox="0 0 24 24" fill="none" xmlns="http://www.w3.org/2000/svg">
<path d="M6.5322 5.06501L13.6034 12.0094L6.5322 18.9537C6.36347 19.1194 6.22963 19.3162 6.13832 19.5327C6.047 19.7492 6 19.9812 6 20.2155C6 20.4499 6.047 20.6819 6.13832 20.8984C6.22963 21.1149 6.36347 21.3116 6.5322 21.4773C6.70093 21.643 6.90124 21.7745 7.12169 21.8642C7.34214 21.9538 7.57842 22 7.81704 22C8.05566 22 8.29194 21.9538 8.51239 21.8642C8.73285 21.7745 8.93316 21.643 9.10188 21.4773L17.467 13.2622C17.636 13.0966 17.77 12.9 17.8615 12.6835C17.9529 12.4669 18 12.2348 18 12.0004C18 11.766 17.9529 11.5339 17.8615 11.3174C17.77 11.1009 17.636 10.9042 17.467 10.7386L9.10189 2.52351C8.39112 1.82549 7.24297 1.82549 6.5322 2.52351C5.83966 3.22153 5.82144 4.36699 6.5322 5.06501Z" fill="black"/>
</svg>
