<svg width="24" height="24" viewBox="0 0 24 24" fill="none" xmlns="http://www.w3.org/2000/svg">
<path d="M17.4678 18.935L10.3966 11.9906L17.4678 5.04625C17.6365 4.88055 17.7704 4.68383 17.8617 4.46733C17.953 4.25083 18 4.01879 18 3.78445C18 3.55012 17.953 3.31807 17.8617 3.10157C17.7704 2.88507 17.6365 2.68836 17.4678 2.52265C17.2991 2.35695 17.0988 2.22551 16.8783 2.13583C16.6579 2.04616 16.4216 2 16.183 2C15.9443 2 15.7081 2.04616 15.4876 2.13583C15.2672 2.22551 15.0668 2.35695 14.8981 2.52265L6.53297 10.7378C6.36402 10.9034 6.22998 11.1 6.13853 11.3165C6.04707 11.5331 6 11.7652 6 11.9996C6 12.234 6.04707 12.4661 6.13853 12.6826C6.22998 12.8991 6.36402 13.0958 6.53297 13.2614L14.8981 21.4765C15.6089 22.1745 16.757 22.1745 17.4678 21.4765C18.1603 20.7785 18.1786 19.633 17.4678 18.935Z" fill="black"/>
</svg>
