<svg width="24" height="24" viewBox="0 0 24 24" fill="none" xmlns="http://www.w3.org/2000/svg">
<path d="M18.935 6.5322L11.9906 13.6034L5.04625 6.5322C4.88055 6.36347 4.68383 6.22963 4.46733 6.13832C4.25083 6.047 4.01879 6 3.78445 6C3.55012 6 3.31807 6.047 3.10157 6.13832C2.88507 6.22963 2.68836 6.36347 2.52265 6.5322C2.35695 6.70093 2.22551 6.90124 2.13583 7.12169C2.04616 7.34214 2 7.57842 2 7.81704C2 8.05566 2.04616 8.29194 2.13583 8.51239C2.22551 8.73285 2.35695 8.93316 2.52265 9.10188L10.7378 17.467C10.9034 17.636 11.1 17.77 11.3165 17.8615C11.5331 17.9529 11.7652 18 11.9996 18C12.234 18 12.4661 17.9529 12.6826 17.8615C12.8991 17.77 13.0958 17.636 13.2614 17.467L21.4765 9.10188C22.1745 8.39112 22.1745 7.24296 21.4765 6.5322C20.7785 5.83966 19.633 5.82144 18.935 6.5322Z" fill="black"/>
</svg>
