<svg width="24" height="24" viewBox="0 0 24 24" fill="none" xmlns="http://www.w3.org/2000/svg">
<path d="M5.06501 17.4678L12.0094 10.3966L18.9537 17.4678C19.1194 17.6365 19.3162 17.7704 19.5327 17.8617C19.7492 17.953 19.9812 18 20.2155 18C20.4499 18 20.6819 17.953 20.8984 17.8617C21.1149 17.7704 21.3116 17.6365 21.4773 17.4678C21.643 17.2991 21.7745 17.0988 21.8642 16.8783C21.9538 16.6579 22 16.4216 22 16.183C22 15.9443 21.9538 15.7081 21.8642 15.4876C21.7745 15.2672 21.643 15.0668 21.4773 14.8981L13.2622 6.53297C13.0966 6.36402 12.9 6.22998 12.6835 6.13853C12.4669 6.04707 12.2348 6 12.0004 6C11.766 6 11.5339 6.04707 11.3174 6.13853C11.1009 6.22998 10.9042 6.36402 10.7386 6.53297L2.52351 14.8981C1.82549 15.6089 1.82549 16.757 2.52351 17.4678C3.22153 18.1603 4.36699 18.1786 5.06501 17.4678Z" fill="black"/>
</svg>
