<svg width="24" height="24" viewBox="0 0 24 24" fill="none" xmlns="http://www.w3.org/2000/svg">
<path d="M17.6192 4.96967C18.0506 5.31443 18.0475 5.95253 17.657 6.34298C17.2666 6.73345 16.637 6.72665 16.195 6.39572C15.1769 5.63355 13.9647 5.1592 12.6865 5.03324C11.0748 4.87442 9.45794 5.27933 8.11134 6.17899C6.76474 7.07865 5.77174 8.41739 5.30154 9.96711C4.83134 11.5168 4.91302 13.1816 5.53268 14.6779C6.15234 16.1741 7.27162 17.4092 8.69983 18.1727C10.128 18.9362 11.7768 19.1809 13.3652 18.8651C14.9536 18.5492 16.3833 17.6924 17.4108 16.4406C18.2256 15.4479 18.7475 14.2554 18.9286 12.9966C19.0073 12.45 19.4477 12 20 12C20.5523 12 21.0057 12.4491 20.9445 12.998C20.7523 14.7206 20.0656 16.3588 18.957 17.7095C17.6361 19.3191 15.7979 20.4208 13.7557 20.827C11.7136 21.2332 9.5937 20.9187 7.75737 19.9372C5.92104 18.9556 4.48187 17.3677 3.68506 15.444C2.88825 13.5203 2.78311 11.3798 3.38756 9.3873C3.992 7.39477 5.26863 5.67346 6.99992 4.51666C8.73121 3.35987 10.81 2.83916 12.8822 3.04327C14.6213 3.21456 16.2653 3.88745 17.6192 4.96967Z" fill="black"/>
</svg>
