<svg width="24" height="24" viewBox="0 0 24 24" fill="none" xmlns="http://www.w3.org/2000/svg">
<path d="M2.0036 6.512L11.9999 11.8427L21.9961 6.512C21.9591 5.83259 21.68 5.19398 21.2159 4.72697C20.7518 4.25995 20.1379 3.99988 19.4999 4H4.49985C3.86183 3.99988 3.24791 4.25995 2.78382 4.72697C2.31974 5.19398 2.04061 5.83259 2.0036 6.512Z" fill="black"/>
<path d="M22 9.49066L12 14.824L2 9.49066V17.3333C2 18.0406 2.26339 18.7188 2.73223 19.2189C3.20107 19.719 3.83696 20 4.5 20H19.5C20.163 20 20.7989 19.719 21.2678 19.2189C21.7366 18.7188 22 18.0406 22 17.3333V9.49066Z" fill="black"/>
</svg>
