<svg width="24" height="24" viewBox="0 0 24 24" fill="none" xmlns="http://www.w3.org/2000/svg">
<path d="M3.11111 18.3333H20.8889C21.5 18.3333 22 17.8333 22 17.2222C22 16.6111 21.5 16.1111 20.8889 16.1111H3.11111C2.5 16.1111 2 16.6111 2 17.2222C2 17.8333 2.5 18.3333 3.11111 18.3333ZM3.11111 12.7778H20.8889C21.5 12.7778 22 12.2778 22 11.6667C22 11.0556 21.5 10.5556 20.8889 10.5556H3.11111C2.5 10.5556 2 11.0556 2 11.6667C2 12.2778 2.5 12.7778 3.11111 12.7778ZM2 6.11111C2 6.72222 2.5 7.22222 3.11111 7.22222H20.8889C21.5 7.22222 22 6.72222 22 6.11111C22 5.5 21.5 5 20.8889 5H3.11111C2.5 5 2 5.5 2 6.11111Z" fill="black"/>
</svg>
