<svg width="24" height="24" viewBox="0 0 24 24" fill="none" xmlns="http://www.w3.org/2000/svg">
<path d="M21.3322 3H2.66667C2.29778 3 2 3.31706 2 3.7125V6.5625H22V3.7125C22 3.61883 21.9827 3.52609 21.9491 3.43956C21.9156 3.35304 21.8664 3.27444 21.8043 3.20827C21.7423 3.14209 21.6687 3.08963 21.5877 3.0539C21.5067 3.01816 21.4199 2.99984 21.3322 3ZM3.11111 20.3375C3.11111 21.2519 3.81 22 4.66556 22H19.3322C20.1878 22 20.8878 21.2507 20.8878 20.3375V7.75H3.11111V20.3375ZM8.66667 10.125H15.3333V12.5H8.66667V10.125Z" fill="black"/>
</svg>
