<svg width="24" height="24" viewBox="0 0 24 24" fill="none" xmlns="http://www.w3.org/2000/svg">
<path d="M22 9.25928V3.35055C22 2.84792 21.3996 2.60219 21.0549 2.95962L19.0758 4.94781C18.0343 3.90146 16.7759 3.09871 15.3903 2.59674C14.0046 2.09478 12.5259 1.90595 11.0593 2.04371C6.40058 2.46815 2.56466 6.23232 2.0532 10.9124C1.78284 13.5366 2.55018 16.1623 4.18969 18.2232C5.82919 20.2841 8.20944 21.615 10.8169 21.9286C13.4244 22.2423 16.0502 21.5137 18.1277 19.9C20.2053 18.2863 21.5681 15.9168 21.9222 13.3027C22 12.6325 21.4774 12.0517 20.8103 12.0517C20.2544 12.0517 19.7874 12.465 19.7207 13.0123C19.2426 16.9105 15.8959 19.9263 11.8821 19.8704C7.75705 19.8146 4.27692 16.3185 4.21021 12.1634C4.1435 7.80723 7.6681 4.23295 11.9932 4.23295C14.1391 4.23295 16.0849 5.11535 17.497 6.52273L15.1732 8.85718C14.8174 9.21461 15.062 9.81777 15.5623 9.81777H21.4441C21.7554 9.81777 22 9.57203 22 9.25928Z" fill="black"/>
</svg>
