<svg width="24" height="24" viewBox="0 0 24 24" fill="none" xmlns="http://www.w3.org/2000/svg">
<path d="M12 2C6.48606 2 2 6.48606 2 12C2 17.5139 6.48606 22 12 22C17.5139 22 22 17.5139 22 12C22 6.48606 17.5139 2 12 2ZM18.2308 12.7692H5.76923C5.56522 12.7692 5.36956 12.6882 5.2253 12.5439C5.08104 12.3997 5 12.204 5 12C5 11.796 5.08104 11.6003 5.2253 11.4561C5.36956 11.3118 5.56522 11.2308 5.76923 11.2308C5.97324 11.2308 18.2308 11.2308 18.2308 11.2308C18.4348 11.2308 18.6304 11.3118 18.7747 11.4561C18.919 11.6003 19 11.796 19 12C19 12.204 18.919 12.3997 18.7747 12.5439C18.6304 12.6882 18.4348 12.7692 18.2308 12.7692Z" fill="black"/>
</svg>
