<svg width="24" height="24" viewBox="0 0 24 24" fill="none" xmlns="http://www.w3.org/2000/svg">
<path d="M19.7778 2H4.22222C3 2 2 3 2 4.22222V19.7778C2 21 3 22 4.22222 22H19.7778C21 22 22 21 22 19.7778V4.22222C22 3 21 2 19.7778 2ZM19.7778 19.7778H4.22222V4.22222H19.7778V19.7778ZM6.44444 11.8889C6.44444 11.3366 6.89216 10.8889 7.44444 10.8889H16.5556C17.1078 10.8889 17.5556 11.3366 17.5556 11.8889V12.1111C17.5556 12.6634 17.1078 13.1111 16.5556 13.1111H7.44444C6.89216 13.1111 6.44444 12.6634 6.44444 12.1111V11.8889Z" fill="black"/>
</svg>
