<svg width="24" height="24" viewBox="0 0 24 24" fill="none" xmlns="http://www.w3.org/2000/svg">
<path fill-rule="evenodd" clip-rule="evenodd" d="M13.9115 2.00004C14.1875 1.99767 14.4578 2.09244 14.6721 2.2711C14.8881 2.45118 15.033 2.70514 15.0741 2.98756C15.0741 2.9879 15.0742 2.98824 15.0742 2.98858L15.3806 5.06693C15.7597 5.24248 16.1189 5.4472 16.4605 5.67814L18.5012 4.88093L18.5119 4.87715C18.993 4.70697 19.6254 4.85476 19.9312 5.3891L21.8448 8.60923L21.8491 8.61687C22.1257 9.1102 22.0197 9.74666 21.5507 10.1068L21.5482 10.1087L19.8447 11.4044C19.8617 11.5948 19.8726 11.7927 19.8726 11.9999C19.8726 12.2072 19.8617 12.4051 19.8447 12.5954L21.5507 13.8931C22.0197 14.2532 22.1257 14.8897 21.8491 15.383L21.8448 15.3906L19.9312 18.6108C19.6367 19.1253 19.0197 19.3162 18.4964 19.117L18.4907 19.1148L16.4572 18.3204C16.1194 18.5467 15.7613 18.7542 15.3808 18.932L15.0747 21.0082C14.9936 21.6072 14.4694 21.9998 13.9152 21.9998H10.0899C9.53562 21.9998 9.01142 21.6072 8.93035 21.0082L8.62441 18.9329C8.24537 18.7574 7.88613 18.5527 7.54456 18.3217L5.5038 19.1189L5.49313 19.1227C5.01201 19.2929 4.37972 19.1451 4.07385 18.6108L2.16025 15.3906L2.15597 15.383C1.87933 14.8897 1.98538 14.2532 2.45433 13.8931L2.45687 13.8911L4.16054 12.5952C4.14345 12.4022 4.13247 12.2026 4.13247 11.9999C4.13247 11.7972 4.14345 11.5976 4.16054 11.4046L2.45687 10.1087L2.45433 10.1068C2.00692 9.7632 1.84976 9.12411 2.16611 8.59938L4.07385 5.38905C4.36841 4.87452 4.98535 4.68367 5.50866 4.88286L5.51435 4.88502L7.54786 5.67944C7.88561 5.45321 8.2437 5.24571 8.62427 5.06786L8.93035 2.99164C9.01142 2.39265 9.53562 2.00004 10.0899 2.00004H13.9115ZM13.7238 3.39538L14.1155 6.05276L14.4888 6.20156C15.0114 6.40991 15.4937 6.68579 15.9454 7.02371L16.2559 7.25608L18.8219 6.25369L20.5308 9.12945L18.3646 10.7772L18.416 11.1772C18.4524 11.4609 18.4772 11.7257 18.4772 11.9999C18.4772 12.2741 18.4524 12.5389 18.416 12.8226L18.3646 13.2227L20.5308 14.8704L18.8219 17.7462L16.261 16.7458L15.9521 16.9711C15.4911 17.3075 15.0065 17.5919 14.4888 17.7983L14.1155 17.9471L13.7238 20.6045H10.2812L9.88949 17.9471L9.51624 17.7983C8.99359 17.5899 8.51131 17.3141 8.05968 16.9761L7.74913 16.7438L5.18315 17.7462L3.47422 14.8704L5.64046 13.2227L5.58906 12.8226C5.55269 12.5396 5.5278 12.2652 5.5278 11.9999C5.5278 11.7346 5.55269 11.4602 5.58906 11.1772L5.64046 10.7772L3.47422 9.12945L5.18315 6.25369L7.744 7.25408L8.05289 7.02873C8.51396 6.69237 8.99849 6.40796 9.51624 6.20156L9.88949 6.05276L10.2812 3.39538H13.7238ZM12.0025 9.44182C10.5238 9.44182 9.35307 10.608 9.35307 11.9999C9.35307 13.3919 10.5238 14.558 12.0025 14.558C13.4812 14.558 14.652 13.3919 14.652 11.9999C14.652 10.608 13.4812 9.44182 12.0025 9.44182ZM7.95774 11.9999C7.95774 9.80122 9.78984 8.04649 12.0025 8.04649C14.2152 8.04649 16.0473 9.80122 16.0473 11.9999C16.0473 14.1986 14.2152 15.9534 12.0025 15.9534C9.78984 15.9534 7.95774 14.1986 7.95774 11.9999Z" fill="black"/>
</svg>
