<svg width="24" height="24" viewBox="0 0 24 24" fill="none" xmlns="http://www.w3.org/2000/svg">
<path d="M19.3019 14.2043C18.8683 13.7839 18.4347 13.3635 18.0011 12.9431C17.6971 12.6477 17.3936 12.3524 17.0895 12.0571C16.9967 11.967 16.9025 11.8774 16.8109 11.7853C16.7815 11.7555 16.7612 11.7593 16.7384 11.7828C16.6239 11.8965 16.5075 12.0089 16.3918 12.1213C15.9039 12.5957 15.416 13.0701 14.9282 13.5444C14.4835 13.9763 14.0388 14.4075 13.5941 14.8387C13.1455 15.2737 12.6975 15.7093 12.2496 16.145C11.8088 16.573 11.3674 17.0004 10.9266 17.4278C10.7579 17.5917 10.5892 17.7555 10.4165 17.9232C10.4165 17.9473 10.4165 17.9759 10.4165 18.0044C10.4165 18.9678 10.4165 19.9318 10.4165 20.8952C10.4165 20.9136 10.4159 20.932 10.4172 20.9498C10.4185 20.9644 10.4218 20.9797 10.4244 20.993C10.4937 21.0019 13.5255 21.0025 13.6026 20.9936C13.6072 20.9873 13.6131 20.979 13.619 20.9708C13.6203 20.9689 13.6222 20.9663 13.6242 20.9644C13.6262 20.9625 13.6275 20.9606 13.6294 20.9587C15.7293 18.9221 17.8298 16.8855 19.9297 14.8482C19.9316 14.8463 19.9329 14.8438 19.9336 14.8412C19.9349 14.8387 19.9355 14.8361 19.9362 14.8336C19.9369 14.8311 19.9369 14.8285 19.9369 14.8241C19.9336 14.819 19.931 14.8114 19.9251 14.8057C19.7171 14.6056 19.5092 14.4049 19.3019 14.2043ZM13.8348 19.4511C13.6634 19.6162 13.4934 19.7826 13.3221 19.9483C13.2881 19.9814 13.2521 20.0125 13.2168 20.0442C13.171 20.0449 13.1259 20.0455 13.0801 20.0455C12.8702 20.0461 12.6609 20.0461 12.451 20.0468C12.4379 20.0468 12.4242 20.0474 12.4111 20.0455C12.3935 20.043 12.381 20.0315 12.3784 20.015C12.3745 19.9922 12.3745 19.968 12.3745 19.9452C12.3745 19.6924 12.3745 19.439 12.3751 19.1856C12.3751 19.1056 12.3719 19.1018 12.2888 19.1012C12.0305 19.1005 11.7729 19.1012 11.5145 19.1012C11.4877 19.1012 11.4609 19.1005 11.4341 19.0974C11.4171 19.0955 11.4053 19.0828 11.4027 19.0656C11.4008 19.0529 11.4008 19.0396 11.4008 19.0269C11.4008 18.8078 11.4014 18.5887 11.4001 18.3696C11.3994 18.3213 11.4164 18.2851 11.4511 18.2515C11.5852 18.1232 11.7179 17.9936 11.8507 17.8647C11.9193 17.798 11.988 17.732 12.0547 17.664C12.0848 17.6329 12.1044 17.6348 12.1384 17.6571C12.1495 17.664 12.158 17.6748 12.1672 17.6837C12.4471 17.9581 12.727 18.2318 13.0062 18.5061C13.2063 18.703 13.4064 18.8999 13.6065 19.0967C13.6896 19.1787 13.7733 19.2599 13.8564 19.3412C13.8655 19.3501 13.8734 19.3609 13.8832 19.3717C13.8747 19.4092 13.8564 19.4301 13.8348 19.4511ZM17.1706 13.2504C17.1059 13.3133 17.0418 13.3768 16.9777 13.4397C16.5781 13.827 16.1786 14.2144 15.779 14.6018C15.2558 15.1092 14.7327 15.6166 14.2095 16.124C13.8289 16.493 13.4489 16.862 13.0683 17.2309C13.0415 17.257 13.0134 17.2811 12.9873 17.3071C12.9245 17.3707 12.848 17.37 12.7708 17.3465C12.7348 17.3357 12.708 17.3021 12.6956 17.269C12.6773 17.2221 12.676 17.1712 12.706 17.1262C12.7217 17.102 12.7407 17.0798 12.7616 17.0595C13.0795 16.7521 13.3979 16.4447 13.7158 16.1374C14.0074 15.8554 14.2984 15.5734 14.5908 15.2921C15.0237 14.8743 15.4572 14.457 15.8902 14.0392C16.1956 13.7451 16.501 13.4505 16.8064 13.1564C16.8482 13.1164 16.8946 13.0802 16.9378 13.0408C16.9672 13.0142 17.0012 13.0021 17.0339 13.0066C17.119 13.0072 17.187 13.0599 17.2027 13.1336C17.2118 13.178 17.2046 13.218 17.1706 13.2504Z" fill="black"/>
<path d="M21.9714 12.2851C21.9648 12.268 21.9576 12.2508 21.9563 12.2331C21.9511 12.1702 21.9361 12.1124 21.904 12.0559C21.8622 11.9835 21.8242 11.9105 21.7628 11.8501C21.4907 11.5872 21.22 11.323 20.9486 11.0588C20.6432 10.7616 20.3378 10.4651 20.0317 10.1679C19.9768 10.1145 19.9186 10.0637 19.865 10.0091C19.8107 9.95322 19.7342 9.92845 19.6766 9.87701C19.6655 9.86685 19.6479 9.86368 19.6335 9.85733C19.5674 9.82811 19.5007 9.80208 19.4275 9.797C19.4196 9.79636 19.4111 9.79382 19.4046 9.78938C19.3627 9.75826 19.3137 9.76016 19.2653 9.75953C19.2248 9.75953 19.1849 9.75889 19.1443 9.76016C19.1064 9.7608 19.0698 9.76143 19.0371 9.7862C19.0253 9.79509 19.0076 9.79954 18.9919 9.80081C18.935 9.80589 18.8808 9.81732 18.8317 9.8478C18.8213 9.85479 18.8062 9.85479 18.7931 9.8586C18.7807 9.86304 18.7676 9.86685 18.7565 9.87447C18.6656 9.93417 18.578 9.99767 18.5002 10.0739C18.1098 10.4543 17.718 10.834 17.327 11.2138C17.306 11.2341 17.2845 11.2532 17.2766 11.2868C17.3015 11.3097 17.327 11.3319 17.3512 11.3554C17.722 11.7117 18.0934 12.0673 18.4635 12.4242C18.7349 12.6852 19.0057 12.9469 19.2764 13.2079C19.6485 13.5667 20.0206 13.9249 20.3934 14.2837C20.4045 14.2945 20.4163 14.3059 20.4293 14.3141C20.4601 14.3338 20.479 14.3307 20.5072 14.3033C20.7177 14.0982 20.9283 13.8931 21.1395 13.688C21.322 13.5108 21.5051 13.3343 21.6869 13.1558C21.7562 13.0872 21.8249 13.0174 21.87 12.9297C21.9079 12.8554 21.957 12.7856 21.9544 12.6973C21.9537 12.6846 21.9576 12.6713 21.9622 12.6592C21.9688 12.642 21.9812 12.6268 21.9845 12.609C22.0021 12.5004 22.0126 12.3918 21.9714 12.2851Z" fill="black"/>
<path d="M18.113 9.30101C18.098 9.29022 18.081 9.27815 18.0633 9.27561C17.9979 9.26482 17.9404 9.23687 17.8835 9.20639C17.8639 9.19623 17.8403 9.18988 17.8181 9.18797C17.6893 9.17464 17.5611 9.14987 17.4303 9.15559C17.3309 9.16003 17.2315 9.15686 17.1321 9.15686C17.1053 9.15686 17.0785 9.15622 17.0517 9.15432C17.0137 9.15178 16.9895 9.13145 16.9745 9.0978C16.9536 9.0508 16.9281 9.00508 16.9071 8.95745C16.8967 8.93395 16.8869 8.90855 16.8836 8.88378C16.8751 8.82028 16.8581 8.76058 16.8143 8.71041C16.8025 8.69708 16.7973 8.67739 16.794 8.65961C16.7842 8.60753 16.7639 8.56054 16.7345 8.51609C16.7201 8.49449 16.7096 8.46973 16.7038 8.44432C16.6796 8.337 16.607 8.25317 16.5625 8.15601C16.554 8.13632 16.5435 8.11727 16.5318 8.0925C16.603 8.02138 16.6704 7.95152 16.7404 7.88421C16.8437 7.78577 16.947 7.68734 17.0216 7.56541C17.0412 7.53366 17.0556 7.49619 17.0824 7.47206C17.1386 7.42252 17.1426 7.35394 17.1635 7.2917C17.1844 7.22883 17.2308 7.17676 17.2348 7.10563C17.2439 6.93861 17.2485 6.77286 17.2433 6.60521C17.2387 6.45406 17.1635 6.32959 17.1092 6.19687C17.0896 6.14924 17.0628 6.10224 17.0294 6.06287C16.9392 5.95745 16.8476 5.85267 16.7495 5.75423C16.5442 5.54974 16.3349 5.34843 16.1257 5.14776C16.0007 5.02773 15.8817 4.90135 15.7411 4.79848C15.6627 4.74132 15.5914 4.67146 15.49 4.64987C15.4756 4.6467 15.4612 4.63908 15.4488 4.63019C15.3913 4.58954 15.3265 4.5724 15.2565 4.56478C15.2147 4.56033 15.1741 4.54826 15.1329 4.54001C15.0316 4.51969 14.9296 4.5 14.8262 4.51524C14.702 4.53366 14.5758 4.5489 14.4548 4.58002C14.3678 4.60224 14.2802 4.63844 14.2056 4.68671C14.0729 4.77307 13.946 4.86897 13.8368 4.98391C13.7747 5.04932 13.7086 5.11092 13.6445 5.17443C13.6243 5.19475 13.6007 5.20491 13.5726 5.19729C13.5111 5.18014 13.4438 5.18014 13.3934 5.13061C13.3758 5.11346 13.3476 5.10203 13.3228 5.09695C13.2764 5.08806 13.2365 5.07028 13.1972 5.04551C13.1691 5.02773 13.1351 5.0182 13.1031 5.00804C12.9912 4.97185 12.8866 4.91914 12.7741 4.88421C12.7238 4.86897 12.6773 4.84293 12.6244 4.8315C12.5165 4.80864 12.4949 4.78006 12.4923 4.67019C12.4916 4.65178 12.4936 4.63336 12.4929 4.61431C12.4903 4.46253 12.489 4.31012 12.4844 4.15834C12.4831 4.11389 12.4851 4.06435 12.4655 4.02752C12.4099 3.9221 12.3987 3.8008 12.3281 3.6992C12.2922 3.64712 12.2555 3.59568 12.2202 3.54297C12.1581 3.44835 12.0816 3.36706 11.9887 3.30038C11.9338 3.26101 11.8802 3.21719 11.82 3.18671C11.7298 3.14098 11.6434 3.08256 11.5381 3.06922C11.527 3.06795 11.5166 3.06224 11.5061 3.05652C11.4302 3.01524 11.3478 3.00508 11.2628 3.00445C11.1752 3.00381 11.0869 3.00064 10.9993 3C10.6076 3.00191 10.2139 3.00191 9.82019 3.00254C9.73256 3.00254 9.64428 3.00699 9.55665 3.00762C9.48275 3.00826 9.41343 3.02096 9.34608 3.05334C9.31207 3.06986 9.27414 3.07748 9.23817 3.08891C9.21267 3.09653 9.18455 3.09907 9.16166 3.11177C9.04918 3.17401 8.93539 3.23307 8.83534 3.31435C8.80002 3.34293 8.75751 3.36516 8.7307 3.39945C8.60776 3.55377 8.47173 3.70237 8.42792 3.90178C8.4253 3.91257 8.42007 3.92273 8.41484 3.93226C8.36252 4.01863 8.35402 4.11516 8.35206 4.21168C8.3501 4.34886 8.35075 4.48603 8.3501 4.6232C8.3501 4.64924 8.35141 4.67527 8.34944 4.70131C8.34225 4.78514 8.31936 4.80864 8.235 4.8315C8.18726 4.8442 8.13887 4.85627 8.0944 4.87595C7.99108 4.92231 7.87729 4.9439 7.77789 4.99979C7.77135 5.0036 7.7635 5.00423 7.75565 5.0055C7.65233 5.02138 7.57647 5.10267 7.47249 5.11727C7.46268 5.11854 7.45352 5.12934 7.44502 5.13696C7.38747 5.18903 7.31292 5.19538 7.24229 5.19856C7.1939 5.20046 7.17298 5.14522 7.13832 5.11727C7.12654 5.10775 7.11608 5.09695 7.10562 5.08615C6.96894 4.94073 6.81592 4.81245 6.65177 4.69687C6.63346 4.68417 6.61319 4.66956 6.59226 4.66638C6.54191 4.65749 6.4994 4.63527 6.45624 4.60986C6.43073 4.59462 6.40131 4.58383 6.37188 4.57748C6.28621 4.55969 6.19923 4.54572 6.11291 4.52858C5.98343 4.50381 5.8546 4.51016 5.72642 4.53747C5.68522 4.54636 5.64468 4.55652 5.60282 4.56223C5.52239 4.57303 5.44522 4.58954 5.37852 4.63844C5.36086 4.65114 5.33601 4.65432 5.31508 4.66194C5.29416 4.67019 5.26996 4.67464 5.2523 4.68798C5.16206 4.75593 5.06854 4.82134 4.98614 4.89754C4.80369 5.06647 4.62647 5.24047 4.44794 5.41321C4.28314 5.57324 4.11769 5.73264 3.95681 5.89585C3.89403 5.95999 3.83714 6.03048 3.78809 6.10542C3.74362 6.17337 3.69523 6.24195 3.68215 6.32515C3.68019 6.33594 3.67496 6.34737 3.66776 6.35499C3.61349 6.41088 3.6076 6.48074 3.60695 6.55186C3.60695 6.5779 3.60498 6.60394 3.60106 6.62934C3.57686 6.79255 3.59387 6.95512 3.61087 7.11769C3.61414 7.15008 3.62199 7.18501 3.63703 7.21359C3.66711 7.27011 3.69523 7.32536 3.70242 7.39013C3.70439 7.40728 3.71747 7.42379 3.72793 7.43903C3.77436 7.50635 3.82144 7.57303 3.86918 7.64035C3.88422 7.6613 3.89861 7.68353 3.91758 7.70195C3.98428 7.76799 4.0536 7.83086 4.1203 7.89691C4.18439 7.95978 4.24586 8.02455 4.31649 8.09758C4.27071 8.15664 4.24063 8.21126 4.22363 8.27222C4.21905 8.28937 4.20336 8.30334 4.19485 8.31985C4.17981 8.3497 4.16543 8.37955 4.15169 8.41003C4.13142 8.45385 4.11115 8.49767 4.09218 8.54149C4.08041 8.5688 4.06537 8.59547 4.05818 8.62341C4.04706 8.66723 4.03333 8.70724 4.00259 8.74344C3.98428 8.76503 3.97251 8.79614 3.96989 8.82409C3.96204 8.89204 3.94373 8.95427 3.90253 9.01079C3.88946 9.02857 3.88292 9.05144 3.87834 9.07303C3.86461 9.13463 3.82406 9.15749 3.76193 9.15622C3.65861 9.15495 3.55528 9.15813 3.45261 9.15559C3.31463 9.15241 3.17795 9.17019 3.04127 9.18543C3.01904 9.18797 2.99419 9.19115 2.97522 9.20194C2.86732 9.26227 2.73653 9.27879 2.64105 9.36515C2.61032 9.39246 2.575 9.41469 2.53969 9.43692C2.46514 9.48391 2.40105 9.54043 2.34808 9.60965C2.29838 9.67506 2.24802 9.73984 2.19963 9.80588C2.18655 9.82366 2.18001 9.84589 2.1702 9.86558C2.15908 9.88907 2.15058 9.91448 2.13423 9.93416C2.10219 9.97417 2.08846 10.018 2.08453 10.0675C2.07996 10.131 2.06753 10.1914 2.0296 10.2466C2.01391 10.2701 2.00737 10.3012 2.00344 10.3298C1.99887 10.3628 2.00017 10.3965 2.00017 10.4295C2.00017 10.9007 2.00017 11.3719 2.00017 11.8425C2.00017 11.8908 2.00017 11.939 2.0054 11.9867C2.00867 12.0152 2.01587 12.047 2.03156 12.0699C2.06361 12.1149 2.07538 12.1645 2.08126 12.2159C2.08846 12.2756 2.10219 12.3321 2.13947 12.3823C2.15255 12.4001 2.16039 12.4217 2.1702 12.442C2.21794 12.5436 2.27484 12.6389 2.35854 12.7176C2.42721 12.7817 2.48803 12.8567 2.56454 12.9094C2.66002 12.9754 2.76792 13.0243 2.87124 13.0802C2.88432 13.0872 2.90002 13.0898 2.91506 13.0936C2.99288 13.1132 3.0707 13.131 3.14787 13.1514C3.23681 13.1748 3.3264 13.1875 3.41926 13.185C3.52586 13.1818 3.6331 13.1844 3.74035 13.1844C3.76717 13.1844 3.79463 13.1818 3.82014 13.1888C3.84041 13.1945 3.86591 13.2079 3.87376 13.2244C3.90646 13.2911 3.93916 13.359 3.96008 13.4295C3.97578 13.4835 3.9954 13.533 4.01894 13.5845C4.06341 13.6816 4.0948 13.7839 4.14188 13.881C4.16085 13.9204 4.17066 13.9642 4.20074 13.9991C4.21513 14.0157 4.22101 14.0385 4.23082 14.0582C4.24586 14.0881 4.25829 14.1185 4.2766 14.1465C4.3106 14.1998 4.31126 14.2284 4.27071 14.2754C4.25633 14.2925 4.23801 14.3065 4.22167 14.3218C4.07518 14.4577 3.93523 14.5999 3.8149 14.758C3.77044 14.8171 3.73643 14.885 3.70569 14.9524C3.68411 14.9994 3.673 15.0502 3.63964 15.0927C3.6246 15.1118 3.61545 15.1403 3.61414 15.1651C3.60498 15.2985 3.58929 15.4318 3.59387 15.5646C3.5991 15.7113 3.59517 15.863 3.68084 15.9958C3.68869 16.1069 3.77501 16.178 3.82668 16.2669C3.85283 16.312 3.88095 16.3571 3.91758 16.3939C4.03333 16.5114 4.153 16.6257 4.27137 16.7407C4.47082 16.9337 4.66897 17.1287 4.87039 17.3199C4.9626 17.4075 5.05023 17.4977 5.16336 17.565C5.22549 17.6018 5.29154 17.6304 5.35432 17.6641C5.46418 17.7237 5.5904 17.7441 5.7068 17.7892C5.72708 17.7968 5.75193 17.7942 5.77481 17.7942C5.87814 17.7955 5.98147 17.7898 6.08414 17.798C6.22147 17.8088 6.32937 17.7193 6.4582 17.7034C6.48697 17.6996 6.51379 17.6812 6.54125 17.6679C6.57199 17.6533 6.60272 17.6386 6.63215 17.6209C6.71259 17.5732 6.79957 17.5364 6.86692 17.4672C6.97679 17.3548 7.09319 17.2475 7.20633 17.1382C7.24949 17.0969 7.28546 17.09 7.33973 17.1147C7.35347 17.1211 7.36524 17.1312 7.37897 17.1376C7.41298 17.1541 7.44698 17.17 7.48099 17.1859C7.51173 17.2005 7.54312 17.2144 7.57385 17.2284C7.60459 17.2424 7.63467 17.2608 7.66737 17.269C7.76677 17.2944 7.84655 17.3687 7.95184 17.3802C7.9623 17.3815 7.97211 17.3903 7.98061 17.398C8.0192 17.4323 8.06563 17.445 8.11664 17.4488C8.17091 17.4526 8.21931 17.4723 8.26705 17.4977C8.33113 17.532 8.35598 17.5783 8.35468 17.6507C8.35206 17.8361 8.35795 18.0216 8.35991 18.207C8.36056 18.2604 8.37103 18.3093 8.39915 18.3556C8.41615 18.3842 8.43315 18.416 8.43707 18.4477C8.44558 18.5125 8.4665 18.569 8.51686 18.6147C8.52994 18.6268 8.53321 18.6477 8.54171 18.6636C8.5561 18.6897 8.56917 18.717 8.58749 18.7392C8.63261 18.7944 8.67642 18.851 8.72809 18.8992C8.81768 18.9831 8.89419 19.084 9.0191 19.1266C9.02564 19.1291 9.03087 19.1355 9.03741 19.1399C9.12373 19.1958 9.22771 19.2136 9.31599 19.2638C9.32253 19.2676 9.33104 19.2676 9.33823 19.2682C9.46706 19.2803 9.59654 19.3012 9.72603 19.3031C9.74499 19.3031 9.7633 19.3031 9.78227 19.3031V17.6399L18.3308 9.45597C18.2576 9.40453 18.1856 9.35245 18.113 9.30101ZM14.1684 11.5078C14.167 11.5967 14.1487 11.6844 14.116 11.7688C14.1017 11.8063 14.0951 11.8476 14.0925 11.8882C14.0866 11.9778 14.0775 12.0648 14.0284 12.1448C14.0101 12.1753 14.0068 12.2153 14.0009 12.2515C13.9918 12.3029 13.9833 12.3518 13.9467 12.395C13.9264 12.4191 13.9212 12.4553 13.91 12.4864C13.8963 12.5246 13.8872 12.5646 13.8695 12.6008C13.829 12.6839 13.7838 12.7659 13.742 12.8484C13.6949 12.9411 13.6491 13.0339 13.5772 13.1126C13.5478 13.145 13.5327 13.1901 13.5079 13.2269C13.4072 13.3762 13.2803 13.5051 13.1619 13.6403C13.0501 13.768 12.9154 13.8709 12.7839 13.9782C12.6584 14.0811 12.5295 14.1763 12.3883 14.2583C12.349 14.2811 12.3157 14.3116 12.268 14.3167C12.2608 14.3173 12.251 14.3192 12.2464 14.3237C12.1908 14.3827 12.1104 14.4018 12.0417 14.4399C12.0351 14.4437 12.0286 14.4481 12.0234 14.4532C11.9783 14.4945 11.9102 14.4754 11.8638 14.5085C11.82 14.5389 11.7755 14.5599 11.7232 14.577C11.597 14.6183 11.4669 14.6482 11.3413 14.6882C11.2262 14.725 11.1137 14.7472 10.9947 14.7498C10.9607 14.7504 10.9241 14.7504 10.8927 14.7618C10.7867 14.8006 10.6756 14.805 10.5651 14.8082C10.4388 14.812 10.3126 14.8095 10.1871 14.8063C10.1374 14.805 10.0857 14.8031 10.0399 14.7873C9.94379 14.7542 9.8457 14.7491 9.7463 14.7453C9.67305 14.7428 9.60177 14.7307 9.53442 14.7015C9.53115 14.7002 9.52722 14.6983 9.52395 14.6977C9.37681 14.6615 9.23098 14.6196 9.08776 14.5694C9.07338 14.5643 9.05572 14.565 9.04395 14.5574C8.93735 14.4831 8.80721 14.4589 8.69473 14.398C8.67839 14.3891 8.66007 14.3808 8.64634 14.3688C8.6143 14.3408 8.58095 14.3179 8.53713 14.3116C8.52601 14.3097 8.51359 14.3065 8.50509 14.3002C8.3671 14.1967 8.20296 14.1287 8.08525 13.9979C8.05386 13.963 8.00743 13.9395 7.96688 13.9121C7.86879 13.8455 7.7877 13.7616 7.70857 13.6765C7.58104 13.5394 7.45548 13.3997 7.34627 13.2472C7.32666 13.2199 7.31161 13.1901 7.29461 13.1615C7.28546 13.1456 7.27892 13.1266 7.26649 13.1139C7.19325 13.0409 7.15139 12.9494 7.10431 12.8611C7.05592 12.769 7.00818 12.677 6.96044 12.5842C6.94998 12.5646 6.94278 12.5436 6.93559 12.522C6.93101 12.508 6.93166 12.4922 6.92578 12.4788C6.88327 12.3804 6.83226 12.2845 6.83292 12.1734C6.83292 12.1632 6.82638 12.1511 6.81918 12.1435C6.76818 12.0864 6.76098 12.0159 6.7551 11.9454C6.74856 11.8635 6.72632 11.7853 6.70867 11.7053C6.68709 11.6082 6.67793 11.5078 6.67139 11.4081C6.6655 11.316 6.67008 11.2227 6.67008 11.13C6.66681 11.13 6.6642 11.13 6.66093 11.13C6.66812 10.982 6.67401 10.8334 6.68316 10.6854C6.68578 10.6454 6.69362 10.6035 6.70867 10.566C6.73613 10.4956 6.74987 10.4238 6.7551 10.3489C6.75967 10.2815 6.77341 10.218 6.81134 10.1583C6.8303 10.1279 6.8375 10.0891 6.84338 10.0529C6.85254 9.99767 6.86038 9.94305 6.89897 9.89733C6.90354 9.89161 6.90943 9.88526 6.91074 9.87828C6.92905 9.7862 6.98202 9.70808 7.01668 9.62299C7.05461 9.52963 7.10431 9.44327 7.15859 9.3588C7.1684 9.34293 7.18475 9.32959 7.18932 9.31244C7.21548 9.22417 7.28349 9.1613 7.33385 9.08827C7.36328 9.04509 7.39336 9.00254 7.42344 8.95999C7.5235 8.81837 7.65494 8.7047 7.77658 8.58277C7.85048 8.50846 7.93287 8.44178 8.00808 8.36875C8.09506 8.28366 8.19969 8.22269 8.29844 8.15347C8.42465 8.06456 8.56263 7.9928 8.6967 7.91659C8.71958 7.90326 8.74509 7.89564 8.76929 7.88484C8.80395 7.8696 8.83795 7.85245 8.87261 7.83785C8.90727 7.82261 8.94324 7.81054 8.97724 7.79466C9.09103 7.74322 9.21201 7.71147 9.32907 7.66892C9.39054 7.6467 9.45071 7.62574 9.51676 7.6232C9.56711 7.62129 9.61289 7.60605 9.66063 7.59018C9.72472 7.56858 9.79273 7.55398 9.86074 7.54572C9.9366 7.5362 10.0131 7.53683 10.0896 7.53366C10.1694 7.52985 10.2498 7.52604 10.3296 7.52286C10.3715 7.52096 10.414 7.51841 10.4558 7.52032C10.62 7.52667 10.7841 7.53493 10.9483 7.54318C11.0405 7.54763 11.1301 7.56223 11.2151 7.60034C11.2484 7.61494 11.2883 7.61939 11.3263 7.62256C11.3956 7.62828 11.4623 7.64162 11.5238 7.674C11.527 7.67591 11.5303 7.67781 11.5342 7.67908C11.6532 7.70512 11.7631 7.75593 11.8762 7.79784C11.9011 7.80736 11.9279 7.81308 11.9508 7.82578C12.0829 7.89881 12.2215 7.95787 12.3517 8.03725C12.4903 8.12172 12.627 8.20872 12.7545 8.30715C12.8761 8.40114 12.9873 8.5091 13.0998 8.61452C13.1763 8.68692 13.2489 8.76312 13.3176 8.8425C13.3712 8.90474 13.415 8.9746 13.4634 9.04064C13.4784 9.0616 13.4935 9.08319 13.5111 9.10224C13.5634 9.1613 13.6125 9.22227 13.6413 9.29593C13.6426 9.29911 13.6426 9.30355 13.6452 9.30609C13.7119 9.37849 13.7394 9.47311 13.7878 9.55567C13.8335 9.63442 13.8675 9.72015 13.9081 9.80271C13.931 9.84907 13.9473 9.8986 13.963 9.94813C14.0042 10.0751 14.0448 10.2022 14.0827 10.3298C14.0918 10.3616 14.0932 10.3958 14.0938 10.4289C14.0945 10.4962 14.1095 10.5584 14.1324 10.6232C14.1592 10.6988 14.169 10.7832 14.171 10.8639C14.1729 11.0779 14.1716 11.2925 14.1684 11.5078Z" fill="black"/>
</svg>
