<svg width="24" height="24" viewBox="0 0 24 24" fill="none" xmlns="http://www.w3.org/2000/svg">
<path d="M6.01228 9.83113C6.01228 9.86823 6.01228 9.90534 6.01228 9.93317C6.01228 10.3228 6.01228 10.7124 6.01228 11.102C6.01228 11.1298 6.02149 11.1576 6.00307 11.1855C5.97543 11.1948 5.95701 11.1669 5.93859 11.1484C5.84647 11.0649 5.75435 10.9814 5.65302 10.8979C5.38587 10.666 5.11873 10.4341 4.85159 10.2022C4.60287 9.98883 4.34493 9.7662 4.087 9.54356C3.81986 9.31165 3.56192 9.07975 3.29478 8.84784C3.21187 8.7829 3.12897 8.70869 3.04606 8.63448C3.02764 8.61593 3.00921 8.60665 3 8.56955C3.97646 7.71612 4.96213 6.8627 5.93859 6.00928C5.9478 6 5.95701 6.00928 5.95701 6C5.97543 6.00928 5.97543 6.01855 5.97543 6.03711C5.97543 6.05566 5.97543 6.08349 5.97543 6.10204C5.97543 6.46382 5.97543 6.82559 5.97543 7.18737C5.97543 7.22448 5.96622 7.25231 5.99386 7.28941C6.04913 7.28941 6.1044 7.28941 6.16888 7.29869C6.29785 7.30796 6.4176 7.31724 6.53736 7.31724C6.59263 7.31724 6.65711 7.32652 6.71238 7.32652C6.93347 7.34507 7.15455 7.35435 7.36643 7.3729C7.54145 7.38218 7.70727 7.40073 7.88229 7.42856C8.03889 7.44711 8.18628 7.48421 8.33367 7.52132C8.60082 7.59553 8.85875 7.70685 9.09826 7.84599C9.35619 7.99441 9.58649 8.17066 9.79836 8.38402C10.2037 8.79218 10.609 9.20034 11.0235 9.6085C11.4289 10.0167 11.8434 10.4248 12.2487 10.833C12.6909 11.269 13.1238 11.705 13.5568 12.1502C13.8239 12.4192 14.0819 12.6882 14.349 12.9573C14.4964 13.1057 14.6438 13.2634 14.7912 13.4118C14.9939 13.6159 15.1873 13.82 15.39 14.024C15.5097 14.1539 15.6387 14.2745 15.7769 14.3858C15.9611 14.525 16.1638 14.627 16.3849 14.6827C16.5322 14.7198 16.6796 14.7383 16.827 14.7383C16.9191 14.7383 17.0113 14.7383 17.1034 14.7198C17.1771 14.7105 17.2416 14.7105 17.3153 14.7012C17.3982 14.6919 17.4811 14.6919 17.5732 14.6919C17.6929 14.6827 17.8035 14.6827 17.9232 14.6827C17.9324 14.6827 17.9509 14.6734 17.9601 14.6734C17.9785 14.6363 17.9693 14.6084 17.9693 14.5806C17.9693 14.2096 17.9693 13.8478 17.9693 13.4767C17.9693 13.4489 17.9601 13.4118 17.9785 13.3932C18.0061 13.384 18.0246 13.4025 18.0338 13.4118C18.089 13.4582 18.1535 13.5138 18.2088 13.5602C18.4023 13.7365 18.6049 13.9034 18.7984 14.0797C19.1576 14.3951 19.5169 14.7105 19.8854 15.0259C20.217 15.3134 20.5394 15.601 20.871 15.8886C20.9079 15.9257 20.9539 15.9535 20.9816 15.9999C20.9632 16.0185 20.9447 16.037 20.9263 16.0556C20.6499 16.2967 20.3736 16.5379 20.0972 16.7791C19.6919 17.1316 19.2866 17.4841 18.8813 17.8366C18.6141 18.0685 18.3562 18.3004 18.089 18.5323C18.0706 18.5509 18.0522 18.5694 18.0154 18.5694C18.0154 18.5416 18.0061 18.5231 18.0061 18.5045C18.0061 18.319 18.0061 18.1335 18.0061 17.9572C18.0061 17.7717 18.0061 17.5862 18.0061 17.4006C18.0061 17.3728 18.0061 17.345 18.0061 17.3079C17.9877 17.2986 17.9693 17.2893 17.9601 17.2893C17.8956 17.2893 17.8311 17.28 17.7666 17.28C17.7114 17.28 17.6561 17.2708 17.6008 17.2708C17.4626 17.2615 17.3245 17.2615 17.1863 17.2522C16.9928 17.2429 16.7994 17.2337 16.6059 17.2244C16.477 17.2151 16.3572 17.2151 16.2282 17.2058C16.1177 17.1965 16.0072 17.178 15.8874 17.1594C15.8229 17.1502 15.7492 17.1316 15.6847 17.1223C15.6111 17.1038 15.5374 17.0852 15.4729 17.0574C15.2979 17.0017 15.1228 16.9275 14.957 16.844C14.7175 16.7235 14.4872 16.575 14.2753 16.3988C14.1003 16.2596 13.9345 16.1019 13.7779 15.9442C13.6305 15.7958 13.4923 15.6567 13.3449 15.5083C12.5343 14.6919 11.7329 13.8756 10.9222 13.0593C10.7288 12.8645 10.5353 12.6697 10.3511 12.4749C10.2405 12.3636 10.1392 12.2523 10.0287 12.1409C9.86284 11.974 9.69703 11.7977 9.54043 11.6307C9.39304 11.4452 9.23644 11.2875 9.08905 11.1205C8.95087 10.9721 8.80348 10.8144 8.6653 10.666C8.40737 10.4063 8.13101 10.1836 7.79939 10.0259C7.64278 9.95172 7.47697 9.89606 7.31116 9.85896C7.17298 9.82185 7.0348 9.8033 6.89662 9.79402C6.75844 9.77547 6.62027 9.77547 6.47288 9.78475C6.35312 9.78475 6.23337 9.8033 6.1044 9.81258C6.07677 9.81258 6.05834 9.82185 6.01228 9.83113Z" fill="black"/>
<path d="M3.00928 16.4452C3.00928 16.408 3.03691 16.3895 3.05534 16.3802C3.17509 16.2689 3.30406 16.1669 3.42381 16.0555C3.63568 15.87 3.83835 15.6938 4.05022 15.5082C4.2713 15.3134 4.49239 15.1279 4.70426 14.9331C5.08195 14.5992 5.46885 14.2652 5.85575 13.9313C5.89259 13.9034 5.92023 13.8663 5.95708 13.8385C5.96629 13.8292 5.98471 13.8292 6.00314 13.8199C6.01235 13.8385 6.01235 13.8478 6.02156 13.8663C6.02156 13.8849 6.02156 13.9127 6.02156 13.9313C6.02156 14.3023 6.02156 14.6826 6.02156 15.0537C6.02156 15.1557 6.02156 15.165 6.1321 15.1743C6.27949 15.1928 6.41767 15.2021 6.56506 15.2114C6.74009 15.2207 6.91511 15.2207 7.08092 15.2021C7.56915 15.1557 8.00211 14.9795 8.37059 14.6455C8.50877 14.5157 8.62852 14.3765 8.74827 14.2281C8.87724 14.0704 9.00621 13.922 9.13517 13.7736C9.26414 13.6251 9.40232 13.4767 9.53128 13.3283C9.58655 13.2726 9.59577 13.2634 9.65104 13.319C9.80764 13.4767 9.97345 13.6344 10.1301 13.7921C10.3327 13.9869 10.5262 14.191 10.7288 14.3858C10.8946 14.5528 11.0605 14.7105 11.2171 14.8775C11.2631 14.9238 11.3 14.9609 11.346 14.998C11.3552 15.0259 11.3276 15.0444 11.3184 15.063C11.2171 15.1836 11.1249 15.3042 11.0236 15.4248C10.8117 15.6845 10.5814 15.9257 10.3419 16.1576C9.94582 16.5472 9.51286 16.8811 9.02463 17.1502C8.80355 17.2707 8.58246 17.3635 8.34295 17.447C8.13108 17.5212 7.90999 17.5769 7.6797 17.614C7.50467 17.6418 7.32965 17.6696 7.14541 17.6696C7.03487 17.6696 6.92432 17.6789 6.81378 17.6789C6.6756 17.6696 6.52821 17.6789 6.39003 17.6511C6.29792 17.6325 6.2058 17.6232 6.11368 17.614C6.08604 17.614 6.0492 17.6047 6.02156 17.614C6.01235 17.6418 6.01235 17.6789 6.01235 17.7067C6.01235 18.1056 6.01235 18.5045 6.01235 18.9127C6.01235 18.9405 6.01235 18.9683 6.00314 18.9869C6.00314 18.9961 5.98471 19.0054 5.9755 18.9961C5.96629 18.9961 5.94786 18.9776 5.93865 18.9683C5.7452 18.8013 5.55175 18.6344 5.3583 18.4581C5.05431 18.1891 4.74111 17.9201 4.43712 17.6511C4.16076 17.4099 3.87519 17.1594 3.59884 16.9182C3.42381 16.7698 3.258 16.6214 3.08297 16.473C3.05534 16.4915 3.0277 16.4637 3.00928 16.4452Z" fill="black"/>
<path d="M14.4042 12.076C14.3858 12.0667 14.3674 12.0575 14.3582 12.0482C14.2845 11.9832 14.22 11.9183 14.1463 11.8534C13.9621 11.6771 13.7778 11.5102 13.5936 11.3339C13.4278 11.1762 13.262 11.0278 13.1054 10.8701C12.9764 10.7495 12.8382 10.6289 12.7093 10.499C12.6908 10.4805 12.6632 10.4526 12.6448 10.4341C12.654 10.4155 12.6632 10.397 12.6724 10.3877C12.8935 10.0816 13.1238 9.78475 13.3817 9.50646C13.4831 9.39515 13.5844 9.28383 13.6949 9.18179C13.9989 8.89422 14.3213 8.62521 14.6806 8.41185C14.9109 8.27271 15.1412 8.16139 15.3899 8.05935C15.5281 8.00369 15.6755 7.95731 15.8229 7.92021C15.9979 7.87383 16.1729 7.846 16.3479 7.81817C16.5875 7.78106 16.827 7.78106 17.0665 7.78106C17.2139 7.78106 17.3613 7.79034 17.5086 7.80889C17.6468 7.82744 17.7942 7.846 17.9324 7.87383C17.9508 7.87383 17.9692 7.87383 18.0061 7.87383C18.0153 7.85527 18.0153 7.83672 18.0153 7.82744C18.0153 7.79034 18.0153 7.74396 18.0153 7.70685C18.0153 7.31724 18.0153 6.93691 18.0153 6.54731C18.0153 6.51948 18.0153 6.50093 18.0153 6.4731C18.0337 6.45454 18.0521 6.45454 18.0614 6.4731C18.1258 6.52876 18.1903 6.58441 18.2456 6.6308C18.6049 6.93691 18.9549 7.24303 19.3142 7.55843C19.526 7.74396 19.7471 7.92948 19.959 8.11501C20.2077 8.32837 20.4564 8.54172 20.7052 8.75508C20.7881 8.82929 20.871 8.89422 20.9539 8.96843C20.9723 8.98699 20.9815 8.99626 20.9999 9.01482C20.9907 9.05192 20.9631 9.07047 20.9355 9.08903C20.6407 9.34876 20.3367 9.6085 20.0419 9.86824C19.6734 10.1929 19.305 10.5083 18.9365 10.833C18.6601 11.0742 18.3838 11.3153 18.1074 11.5565C18.089 11.5751 18.0706 11.6029 18.0429 11.5844C18.0245 11.5751 18.0337 11.538 18.0337 11.5194C18.0337 11.1855 18.0337 10.8515 18.0337 10.5176C18.0337 10.4155 18.0337 10.4155 17.9416 10.3877C17.7942 10.3413 17.6468 10.3042 17.4994 10.2671C17.3705 10.2393 17.2415 10.2393 17.1125 10.23C17.0388 10.2207 16.9744 10.2393 16.9007 10.2393C16.6427 10.2578 16.394 10.3321 16.1545 10.4434C15.9703 10.5361 15.7952 10.6475 15.6294 10.7773C15.482 10.8979 15.3439 11.0278 15.2057 11.1669C15.0307 11.3432 14.8648 11.5287 14.7082 11.7235C14.6069 11.8348 14.5148 11.9554 14.4042 12.076Z" fill="black"/>
</svg>
