<svg width="24" height="24" viewBox="0 0 24 24" fill="none" xmlns="http://www.w3.org/2000/svg">
<path d="M21.1478 18.3216C20.674 17.1989 19.9864 16.1792 19.1233 15.3191C18.2629 14.4566 17.2436 13.7689 16.1217 13.294C16.1117 13.2889 16.1016 13.2864 16.0916 13.2814C17.6564 12.1508 18.6737 10.309 18.6737 8.23116C18.6737 4.78894 15.8856 2 12.4444 2C9.00327 2 6.21517 4.78894 6.21517 8.23116C6.21517 10.309 7.23245 12.1508 8.79731 13.2839C8.78726 13.2889 8.77721 13.2915 8.76716 13.2965C7.64188 13.7714 6.63213 14.4523 5.76556 15.3216C4.90328 16.1823 4.21579 17.2019 3.74104 18.3241C3.27466 19.4227 3.02313 20.6006 3.00006 21.794C2.99939 21.8208 3.00409 21.8475 3.01389 21.8724C3.02369 21.8974 3.03839 21.9202 3.05711 21.9394C3.07584 21.9586 3.09822 21.9738 3.12293 21.9842C3.14764 21.9946 3.17419 22 3.20101 22H4.70809C4.81861 22 4.90652 21.9121 4.90903 21.804C4.95927 19.8643 5.73793 18.0477 7.1144 16.6709C8.53859 15.2462 10.43 14.4623 12.4444 14.4623C14.4589 14.4623 16.3503 15.2462 17.7745 16.6709C19.151 18.0477 19.9296 19.8643 19.9799 21.804C19.9824 21.9146 20.0703 22 20.1808 22H21.6879C21.7147 22 21.7412 21.9946 21.766 21.9842C21.7907 21.9738 21.8131 21.9586 21.8318 21.9394C21.8505 21.9202 21.8652 21.8974 21.875 21.8724C21.8848 21.8475 21.8895 21.8208 21.8888 21.794C21.8637 20.593 21.615 19.4246 21.1478 18.3216ZM12.4444 12.5528C11.2915 12.5528 10.2064 12.103 9.39009 11.2864C8.57375 10.4698 8.12414 9.38442 8.12414 8.23116C8.12414 7.07789 8.57375 5.99246 9.39009 5.17588C10.2064 4.3593 11.2915 3.90955 12.4444 3.90955C13.5974 3.90955 14.6825 4.3593 15.4988 5.17588C16.3151 5.99246 16.7647 7.07789 16.7647 8.23116C16.7647 9.38442 16.3151 10.4698 15.4988 11.2864C14.6825 12.103 13.5974 12.5528 12.4444 12.5528Z" fill="black"/>
</svg>
